<svg enable-background="new 0 0 100 100" viewBox="0 0 100 100" xmlns="http://www.w3.org/2000/svg"><path d="m59.3 90.9h7.8l.7-10.1h-9z" fill="#fff"/><path d="m58.7 80.1h9.1l.1-1.3h-9.3z" fill="#fff"/><path d="m42.5 22.7c-1.2 0-2.1.3-2.6.8-.4.4-.6 1.2-.5 2.2.1 1.6 1.3 3.2 3.1 3.2 1.6 0 2.9-1.4 3.1-3.2.1-1.2 0-1.9-.4-2.3-.5-.5-1.4-.7-2.7-.7zm.4 4c-.6 0-1-.5-1-1.2 0-.6.5-1.2 1-1.2s1 .5 1 1.2c0 .6-.4 1.2-1 1.2z" fill="#fff"/><path d="m42.5 21.5c-1.6 0-2.7.4-3.4 1.2-.6.7-.9 1.8-.8 3 .3 2.5 2 4.2 4.2 4.2s4-1.8 4.2-4.2c.1-1 .1-2.2-.7-3.1-.7-.7-1.8-1.1-3.5-1.1zm3.9 4v.5zm-.3.3c-.2 2.1-1.7 3.6-3.6 3.6-2.1 0-3.4-1.9-3.6-3.6-.1-1.2.1-2 .6-2.6.6-.7 1.6-1 3-1s2.5.3 3 .9.7 1.4.6 2.7z" fill="#fff"/><path d="m47.3 24.4v.6c.6-.2 1.8-.4 3.2 0 0-.2 0-.4 0-.6-1.5-.6-2.8-.2-3.2 0z" fill="#fff"/><path d="m59 17.2c-.1-.3-.1-.5-.2-.6.1.1.1.3.2.6-.1-.1 0 0 0 0z" fill="#fff"/><path d="m55.1 57.4c.1-.1.3-.2.4-.2 2-1.3 3.2-3.1 3.8-4.4-.1-.1-.2-.2-.2-.4-.6-5.7-.8-9-.8-10.7-.8 1.1-1.9 2-3 2.8l-.1.1c-.7.5-2.7 1.3-5.3 1.3-1.9 0-4.2-.4-6.4-1.7-1.1-.6-2.1-1.6-3.2-2.7.2 2.9.4 8.7-.8 10.4-.1.1-.1.1-.1.1.8 2.6 3 7 9.5 7 2.4 0 4.2-.5 5.7-1.3h.1c.1-.2.3-.2.4-.3z" fill="#fff"/><path d="m37 22.1c-.1-.8-.2-1.5-.2-2.1-.1.1 0 .9.2 2.1z" fill="#fff"/><path d="m58.8 16.5c0-.1 0-.1.1-.2-.1-.3-.1-.1-.1.2z" fill="#fff"/><path d="m38.5 51-2.5 1.2v.1z" fill="#fff"/><path d="m87.2 90.5c-2.9 1.1-8.4 3.1-12.4 3.4-.2 1.9-.3 3.7-.4 5 0 .3-.2.5-.5.5s-.5-.2-.5-.5c.2-6.3 2.8-21.3 2.8-21.5.1-.3.3-.4.6-.4.3.1.4.3.4.6-.1.1-1.5 8.5-2.3 15.3 4.7-.4 11.8-3.2 13.4-3.9-1-7.3-3.9-25.5-7.1-27.5-3.7-2.3-15.4-7-17.7-7.9-.3.8-1 2.7-2.6 4.5-1.9 2.2-5.6 4.9-11.8 4.9-4.7 0-7.8-1.6-9.8-3.6-2.5-2.3-3.4-5.1-3.6-6.3 0-.1-.1-.3-.1-.4-2.3 1.1-12.9 6.5-16.5 8.7-3.2 1.9-6.2 20.1-7.1 27.5 1.6.6 8.6 3.5 13.4 3.9-.9-6.8-2.3-15.2-2.3-15.3 0-.3.1-.6.4-.6s.6.1.6.4c0 .2 2.5 15.2 2.8 21.5 0 .3-.2.5-.5.5s-.5-.2-.5-.5c0-1.3-.2-3.1-.4-5-4-.3-9.5-2.3-12.4-3.4v9 .6h73.6c0 .5.5-.1.5-.1 0-1.6 0-7.4 0-9.4zm-19.3.9c0 .1-.2.3-.4.3h-8.5c-.2 0-.4-.1-.4-.3l-.7-12.9c0-.1 0-.2.1-.3s.2-.1.3-.1h10c.1 0 .2 0 .4.1.1.1.1.2.1.3z" fill="#fff"/><path d="m55.2 22.7c-1.3 0-2.2.2-2.7.7-.4.4-.6 1.1-.4 2.3.1 1.9 1.5 3.2 3.1 3.2 1.8 0 2.9-1.6 3.1-3.2.1-1-.1-1.7-.5-2.2-.5-.5-1.3-.8-2.6-.8zm-.4 4c-.6 0-1-.5-1-1.2s.4-1.2 1-1.2 1 .5 1 1.2-.4 1.2-1 1.2z" fill="#fff"/><path d="m58.6 22.8c-.7-.8-1.8-1.2-3.4-1.2-1.7 0-2.8.4-3.5 1.1-.8.8-.8 2.1-.7 3.2.2 2.5 2 4.2 4.2 4.2s4-1.8 4.2-4.2c.1-1.4-.2-2.4-.8-3.1zm-7.3 3.2-.1-.5h.1zm7.4-.2c-.2 1.8-1.5 3.6-3.6 3.6-1.9 0-3.4-1.6-3.6-3.6-.1-1.3.1-2.2.6-2.7.5-.6 1.5-.9 3-.9 1.4 0 2.4.4 3 1 .5.6.7 1.4.6 2.6z" fill="#fff"/><path d="m60.7 34.7h-.1c-.3 0-.5-.2-.5-.5s.2-.5.5-.5.7-.1 1-.2c.1-.5.2-.9.2-1.4 0-.2.2-.4.5-.4.2 0 .4.2.4.5-.1.2-.1.3-.1.5 1.1-1.3 1.6-3.4 1.6-4.9 0-.6-.2-1.1-.5-1.3-.5-.4-1.2-.2-1.2-.2-.1 0-.1 0-.2 0-.5 1.6-1.4 2.4-1.4 2.4 0 .1-.1.1-.2.1s-.1 0-.2 0c-.1-.1-.2-.2-.2-.4.3-2.6-.6-7.4-1.1-10-.1 0-.1-.1-.2-.1-1.8-1.4-3.9-4.5-4.6-5.6-2.2 1.6-5 1.7-5.7 1.7-.1 0-.2 0-.2 0h-.1c-.7.5-1.4.6-2 .6-.5 0-.9 0-1.1-.1-1.3.8-2.5.9-2.9.9-1.9 1.8-4.5 3.9-5.2 4.4.2 1.3.9 7.2-.4 9.2-.1.1-.2.2-.3.2s-.1 0-.1 0c-.1-.1-.3-.2-.3-.3l-.8-3.1s-.1 0-.2 0c0 0-.8-.2-1.3.2-.3.3-.5.7-.5 1.4 0 1.6.5 3.9 1.8 5.1.2.2.4.3.6.5-.2-.5-.3-.7-.3-.8-.1-.2 0-.5.3-.6s.6 0 1 0c0 0 .2.6.6 1.5h.3c.2 0 .4.2.4.4s-.1.4-.3.4c.4.7.8 1.6 1.3 2.5.1 0 .1-.1.1-.1l.7-.7c.1-.2.4-.2.5 0 .2.1.2.4 0 .5l-.7.7c0 .1-.1.1-.2.1.2.3.3.5.5.8l.5-.8c.1-.2.3-.2.5-.1s.2.4.1.5l-.6 1.1c.2.3.5.7.7 1l1-1.5c.1-.2.3-.2.5-.1s.2.3.1.5l-1.1 1.7c.2.3.5.5.7.8l.8-1.6c.1-.2.3-.3.5-.2s.3.3.2.5l-1 1.8c.3.2.6.5.9.7l.5-1.9c.1-.2.3-.4.5-.3s.4.3.3.5l-.6 2.1s.1.1.2.1c.2.1.4.2.6.3l.4-2.4c0-.2.2-.3.4-.3s.3.2.3.4l-.5 2.6c.3.2.7.3 1 .4l.3-2.5c0-.2.2-.3.4-.3s.3.2.3.4l-.4 2.7c.5.2 1 .2 1.5.3v-.1-2.5c0-.2.2-.4.4-.4s.4.2.4.4v2.5c0 .1-.1.1-.1.2h1.1c-.1-.1-.1-.1-.1-.2v-2.5c0-.2.2-.4.4-.4s.4.2.4.4v2.5.2c.5 0 1-.1 1.5-.2l-.4-2.7c0-.2.1-.4.3-.4s.4.1.4.3l.4 2.7c.4-.1.7-.3 1-.4l-.5-2.7c0-.2.1-.4.3-.4s.4.1.4.3l.4 2.5c.3-.2.5-.4.8-.6-.2-.1-.3-.2-.3-.3l-.6-2.2c0-.2.1-.4.3-.5.2 0 .4.1.5.3l.6 2.2v.1c.4-.3.7-.7 1-1 0 0-.1 0-.1-.1l-1-1.8c0-.2 0-.4.2-.5.2 0 .4 0 .5.2l.9 1.8c.3-.3.5-.5.7-.8-.1 0-.2 0-.2-.1l-1.1-1.7c-.1-.2-.1-.4.1-.5s.4-.1.5.1l1.1 1.7c1-1.6 1.8-3.4 2.3-5.3-.2.1-.4.1-.7.1zm-7.1-15c1.5-.4 2.9-.2 3.9.4.8.4.6 1.1.6 1.1-2.5-1-3.7-.6-4.1-.4 0 0-.6.4-.9-.3-.2-.7.5-.8.5-.8zm-13.5.4c1-.6 2.4-.8 3.9-.4 0 0 .7.1.5.8-.3.7-.9.3-.9.3-.4-.2-1.6-.7-4.1.4 0 0-.2-.7.6-1.1zm3.6 14.1c0 .1-.2.2-.3.2h-.1c-.2-.1-.3-.3-.2-.5l.5-1.3c.1-.2.3-.3.5-.2s.2.3.1.5zm6.2 4h-1.7c-.2 0-.4-.2-.4-.4s.2-.4.4-.4h1.7c.2 0 .4.2.4.4s-.2.4-.4.4zm3.4-3.4c0 .1-1.9 1.4-4.4 1.4-3.3 0-4.5-1.2-4.5-1.3-.2-.1-.2-.4 0-.5.1-.2.4-.2.5 0 .1 0 1.1 1.1 4 1.1 2.2 0 4-1.2 4-1.2.2-.2.4-.1.5 0 .1.2.1.4-.1.5zm-8.7-1.6.3-1.1c.1-.1.3-.3.5-.2.1.1.3.3.2.5l-.3 1.1c-.1.2-.2.3-.4.3h-.1c-.1-.1-.3-.3-.2-.6zm6.7-3.9s-.5 1.4-2.2 1.7c-.1 0-.3 0-.4 0-1.5 0-2.4-1.6-2.4-1.7 0-.2 0-.4.2-.5.2 0 .4 0 .5.2 0 0 .8 1.5 2 1.3 1.3-.2 1.7-1.2 1.7-1.2.1-.2.3-.3.5-.2s.3.3.1.4zm.5 2.6.2.5c.1.2 0 .4-.2.5-.1 0-.1 0-.2 0s-.2-.1-.3-.2l-.2-.5c-.1-.2 0-.4.2-.5s.4 0 .5.2zm-1.5.1v.4c0 .2-.2.4-.4.4s-.4-.2-.4-.4v-.4c0-.2.2-.4.4-.4s.4.2.4.4zm-2 0v.4c0 .2-.2.4-.4.4s-.4-.2-.4-.4v-.4c0-.2.2-.4.4-.4s.4.2.4.4zm-1.9 0c0-.2.2-.3.4-.3s.3.2.3.4l-.2.7c-.1.2-.2.3-.4.3h-.1c-.2 0-.3-.2-.3-.4zm6.2 0c.2-.1.4 0 .5.2l.3.8c.1.2 0 .4-.2.5h-.1c-.2 0-.3-.1-.4-.2l-.3-.8c-.1-.2 0-.4.2-.5zm2.1 2.5h-.1c-.1 0-.2-.1-.3-.2l-.5-1.3c-.1-.2 0-.4.2-.5s.4 0 .5.2l.4 1.3c.1.2 0 .4-.2.5zm.4-4.1c-2.5 0-4.5-1.9-4.7-4.6 0-.1 0-.2 0-.3-1.5-.5-2.9-.1-3.2 0v.3c-.3 2.7-2.2 4.6-4.7 4.6-2.4 0-4.4-1.9-4.7-4.6-.1-1.4.2-2.6.9-3.4.8-.9 2.1-1.3 3.8-1.3 1.8 0 3 .4 3.8 1.2.5.5.7 1 .8 1.6.6-.2 1.9-.5 3.4 0 .1-.6.4-1.1.8-1.6.7-.8 2-1.2 3.8-1.2 1.7 0 3 .4 3.8 1.3.7.8 1 1.9.9 3.4-.3 2.7-2.3 4.6-4.7 4.6zm4.2 8.3c-.1.1-.1.1-.2.1s-.2-.1-.3-.2l-.7-1.2c-.1-.2-.1-.4.1-.5s.4-.1.5.1l.7 1.2c.1.2.1.4-.1.5zm.8-1.9c-.1.1-.2.1-.3.1 0 0-.1 0-.2-.1l-.7-.7c-.1-.1-.1-.3 0-.5.2-.1.4-.1.5 0l.7.7c.1.1.1.3 0 .5z" fill="#fff"/><path d="m55.5 57.2c-.1.1-.3.2-.4.2.1-.1.2-.2.4-.2z" fill="#fffc19"/><path d="m54.6 57.7c.1-.1.1-.1 0 0z" fill="#fffc19"/><path d="m39.3 59.4c-.7-.7-1.2-1.4-1.6-2.1-1.1-1.7-1.7-3.2-2-4.2.3 1.2 1.1 4.1 3.6 6.3z" fill="#fffc19"/><path d="m49.1 62.2c5.9 0 9.4-2.5 11.2-4.6 1.7-1.8 2.3-3.7 2.6-4.5l-2.2-1.2c-.6 1.7-3.4 7.8-11.6 7.8s-10.2-6.6-10.6-8.7l-2.5 1.3c.2.6.7 2.5 2.1 4.6 1.7 2.4 4.9 5.3 11 5.3z" fill="#fffc19"/><g fill="#231f20"><path d="m59.1 16.1c.2 0 .4.1.4.3 0 .3 1.5 6.8 1.5 10.8.3-.4.5-.9.6-1.6 0-.2.2-.3.4-.3h.1s.2-.1.4-.1c.4-1.7 1.8-9.5.2-15.1-1.7-6.1-8.2-6.9-8.3-6.9s-.2 0-.3-.1-4.6-3.8-11.6-1.1c-7.6 2.9-9.6 10.8-9.6 14.6 0 4.2 1.1 8 1.6 8.5.5-.1 1 0 1 0h.1c0-.1 0-.1.1-.1.2 0 .4.1.5.3l.6 2.4c.4-1.5.3-3.7.2-5.6-.1-1.2-.3-2-.3-2 0-.1 0-.2 0-.3-.1-.1 0-.2.1-.3 0 0 3.2-2.5 5.4-4.6.9-.9 1.6-1.7 1.9-2.2.1-.1.3-.2.5-.1.1.1.2.3.1.5-.2.5-.7 1-1.3 1.6.5-.1 1.1-.3 1.7-.7h.1c.5-.4 1.1-.9 1.6-1.6.1-.2.3-.2.5-.1s.2.3.1.5c-.4.5-.8 1-1.2 1.3.9.1 2.3-.1 3.5-2 .1-.2.3-.2.5-.1s.2.3.1.5c-.2.5-.5.8-.8 1.1 1.3-.1 3.6-.5 5.3-2.2.1-.1.4-.1.5 0s.1.4 0 .5c-.1 0-.2.1-.3.2.5.9 2.3 3.6 3.9 5 0-.2-.1-.4-.1-.6v-.1c0-.3 0-.4.1-.2 0 0 .1-.1.2-.1z" stroke="#231f20" stroke-miterlimit="10" stroke-width="2"/><path d="m32.2 14.8c-.2.9-.2 1.9-.1 3 0-.4 0-.9 0-1.3 0-.5 0-1 .1-1.7z"/><path d="m87.7 100c.3 0 .5-.2.5-.5h-1c0 .3.2.5.5.5z"/><path d="m12.6 99.9c.3 0 .4-.1.5-.4h-1c.1.3.2.4.5.4z"/><path d="m88.2 90.2c.5-.2.9-.4.9-.4.2-.1.3-.3.3-.5-.4-2.7-3.5-26.1-7.7-28.7-4.1-2.5-17.6-7.9-18.2-8.1-.1 0-.2 0-.3 0l-2.6-1.4c-.1 0-.3-.2-.5-.4-.7-6.7-.6-9.6-.6-10.2 1.3-1.9 2.2-4 2.7-6.4.3-.2.5-.4.8-.6 1.4-1.4 2.1-3.9 2.1-5.8 0-.9-.3-1.6-.8-2.1-.2-.2-.5-.3-.7-.3.4-2 1.8-9.7.2-15.5-1.7-6.3-7.9-7.5-9-7.6-.8-.6-5.5-3.9-12.5-1.2-7.1 2.7-9.6 9.5-10.1 13.8.1-.3.1-.5.2-.7 1.3-3.7 3-9.3 7.1-11.2 4.1-1.9 8.4-3.5 14.9-.2 0 0 7.9.9 9.1 8.8 1.1 8-.6 14.2-.6 14.2l-1 .1-1.3 2.6s0-6.2-1.2-10.4c-.3-1-.5-1.5-.5-1.7 0 .1 0 .1-.1.2v.1c0 .1.1.3.2.6 0 0-.1-.1-.1-.1.1.4.2.9.2.9s-3.8-3.5-4.7-5.8c0 0-2.9 2.2-5.9 1.9 0 0-1.7.9-3.3.4 0 0-1.5 1.1-3 1l-5.5 4.6c.1.5.1 1.3.2 2.1.2 2.2.4 5.5-.6 7.1l-.9-3.4h-1.4s-1.5-4.2-1.9-8c.2 4 1.2 7.2 1.4 7.9-.5.4-.8 1.1-.8 2 0 1.8.6 4.3 2.1 5.7.5.4 1 .8 1.5.9.6 1.5 1.7 3.8 3.2 5.9.2 2.2.4 6.9 0 9.6-.2.1-.5.3-.7.4l-2.9 1.4c-.1 0-.2 0-.3 0-.1.1-12.9 6.5-17.1 9-4.2 2.6-7.3 26-7.6 28.6 0 .2.1.4.3.5.1 0 .4.2.9.4v9.3.1h1v-.1c0-1.5 0-7 0-9 2.9 1.1 8.4 3.1 12.4 3.4.2 1.9.4 3.7.4 5 0 .3.2.5.5.5s.5-.2.5-.5c-.3-6.3-2.8-21.3-2.8-21.5 0-.3-.3-.4-.6-.4s-.4.3-.4.6c0 .1 1.4 8.5 2.3 15.3-4.8-.4-11.8-3.3-13.4-3.9.9-7.4 3.9-25.6 7.1-27.5 3.6-2.2 14.2-7.6 16.5-8.7 0 .1.1.3.1.4-.1-.4-.1-.6-.1-.6l.4-.2s0 0 0-.1l2.5-1.2.3-.1c1.5 7.1 8 8.9 10.2 8.6 2.3-.4 4.1-1 5.6-1.8-1.5.8-3.4 1.3-5.7 1.3-6.5 0-8.7-4.4-9.5-7 0 0 0 0 .1-.1 1.2-1.7 1-7.5.8-10.4 1.1 1.1 2.1 2.1 3.2 2.7 2.2 1.3 4.5 1.7 6.4 1.7 2.6 0 4.6-.8 5.3-1.3l.1-.1c1.1-.8 2.2-1.7 3-2.8 0 1.7.2 5 .8 10.7 0 .2.1.3.2.4-.6 1.2-1.8 3-3.8 4.4 3.9-2.5 4.9-5.8 4.9-5.8l2.9 1.9c-2.9 8.6-12.7 9.3-12.7 9.3-5.6.4-9.1-1.2-11.3-3.2 1.9 1.9 5.1 3.6 9.8 3.6 6.2 0 9.9-2.7 11.8-4.9 1.6-1.8 2.3-3.7 2.6-4.5 2.3.9 14 5.6 17.7 7.9 3.2 2 6.1 20.2 7.1 27.5-1.6.7-8.7 3.5-13.4 3.9.8-6.8 2.2-15.2 2.3-15.3 0-.3-.1-.5-.4-.6-.3 0-.5.1-.6.4 0 .2-2.6 15.2-2.8 21.5 0 .3.2.5.5.5s.5-.2.5-.5c.1-1.3.2-3.1.4-5 4-.3 9.5-2.3 12.4-3.4v9h1c0-1.7 0-7.9 0-9.4zm-29.1-50.3-1.1-1.7c-.1-.2-.3-.2-.5-.1s-.2.3-.1.5l1.1 1.7c0 .1.1.1.2.1-.2.3-.4.5-.7.8l-.9-1.8c-.1-.2-.3-.2-.5-.2-.2.1-.2.3-.2.5l1 1.8c0 .1.1.1.1.1-.3.3-.6.7-1 1 0 0 0 0 0-.1l-.6-2.2c-.1-.2-.3-.3-.5-.3-.2.1-.3.3-.3.5l.6 2.2c0 .1.1.2.3.3-.3.2-.5.4-.8.6l-.4-2.5c0-.2-.2-.3-.4-.3s-.3.2-.3.4l.5 2.7c-.3.1-.6.3-1 .4l-.4-2.7c0-.2-.2-.3-.4-.3s-.3.2-.3.4l.4 2.7c-.5.1-1 .2-1.5.2 0-.1 0-.1 0-.2v-2.5c0-.2-.2-.4-.4-.4s-.4.2-.4.4v2.5c0 .1 0 .1.1.2-.3 0-.7 0-1.1 0 0-.1.1-.1.1-.2v-2.5c0-.2-.2-.4-.4-.4s-.4.2-.4.4v2.5.1c-.5-.1-1-.1-1.5-.3l.4-2.7c0-.2-.1-.4-.3-.4s-.4.1-.4.3l-.3 2.5c-.3-.1-.7-.2-1-.4l.5-2.6c0-.2-.1-.4-.3-.4s-.4.1-.4.3l-.4 2.4c-.2-.1-.4-.2-.6-.3-.1 0-.2-.1-.2-.1l.6-2.1c.1-.2-.1-.4-.3-.5s-.4.1-.5.3l-.5 1.9c-.3-.2-.6-.5-.9-.7l1-1.8c.1-.2 0-.4-.2-.5s-.4 0-.5.2l-.8 1.6c-.2-.3-.5-.5-.7-.8l1.1-1.7c.1-.2.1-.4-.1-.5s-.4-.1-.5.1l-1 1.5c-.2-.3-.5-.7-.7-1l-.1.1c-.1.1-.2.2-.3.2s-.1-.1-.2-.1c-.2-.1-.2-.3-.1-.5l.2-.4c-.2-.3-.4-.6-.5-.8.1 0 .2 0 .2-.1l.7-.7c.2-.1.2-.4 0-.5-.1-.2-.4-.2-.5 0l-.7.7s0 .1-.1.1c-.5-.9-.9-1.8-1.3-2.5.2 0 .3-.2.3-.4s-.2-.4-.4-.4c-.1 0-.2 0-.3 0-.4-.9-.6-1.5-.6-1.5-.4 0-.7-.1-1 0s-.4.4-.3.6c0 .1.1.3.3.8-.2-.2-.4-.3-.6-.5-1.3-1.2-1.8-3.5-1.8-5.1 0-.7.2-1.1.5-1.4.5-.4 1.3-.2 1.3-.2h.2l.8 3.1c0 .1.2.2.3.3h.1s.2-.1.3-.2c1.3-2 .6-7.9.4-9.2.7-.5 3.3-2.6 5.2-4.4.4 0 1.6-.1 2.9-.9.2.1.6.1 1.1.1.6 0 1.3-.1 2-.6h.1.2c.7 0 3.5-.1 5.7-1.7.7 1.1 2.8 4.2 4.6 5.6.1 0 .1.1.2.1.5 2.6 1.4 7.4 1.1 10 0 .2.1.3.2.4h.2c.1 0 .2 0 .2-.1 0 0 .9-.8 1.4-2.4h.2s.7-.2 1.2.2c.3.2.5.7.5 1.3 0 1.5-.5 3.6-1.6 4.9 0-.2 0-.3.1-.5 0-.3-.2-.5-.4-.5-.3 0-.5.2-.5.4 0 .5-.1.9-.2 1.4-.3.1-.7.2-1 .2s-.5.2-.5.5.2.5.5.5h.1c.3 0 .5 0 .7-.1-.5 1.9-1.3 3.7-2.3 5.3z"/><path d="m55.1 57.4c-.1.1-.2.2-.4.2.1-.1.3-.1.4-.2z"/><path d="m39.3 59.4c2.2 2 5.7 3.5 11.3 3.2 0 0 9.8-.7 12.7-9.3l-2.9-1.9s-1 3.3-4.9 5.8c-.1.1-.3.2-.4.2-.1.1-.2.1-.4.2h-.1c-1.5.8-3.3 1.5-5.6 1.8-2.2.3-8.7-1.5-10.2-8.6l-.3.2c.4 2 2.3 8.7 10.6 8.7 8.2 0 11-6.1 11.6-7.8l2.2 1.2c-.3.8-.9 2.7-2.6 4.5-1.8 2.1-5.3 4.6-11.2 4.6v.4-.4c-6.1 0-9.3-2.9-11-5.3-1.4-2.1-1.9-4-2.1-4.6l-.4.2s0 .2.1.6c.3 1 .9 2.5 2 4.2.4.7.9 1.4 1.6 2.1z"/><path d="m35.5 25.8.9 3.4c.9-1.6.8-4.9.6-7.1.2 1.8.2 4.1-.2 5.6l-.6-2.4c-.1-.2-.3-.3-.5-.3-.1 0-.1 0-.1.1 0 0 0 0-.1 0 0 0-.5-.1-1 0-.5-.5-1.6-4.3-1.6-8.5 0-3.8 2-11.7 9.6-14.6 7-2.7 11.5 1 11.6 1.1s.2.1.3.1 6.6.8 8.3 6.9c1.6 5.6.2 13.4-.2 15.1-.2 0-.4.1-.4.1h-.1c-.2 0-.4.1-.4.3-.1.7-.3 1.2-.6 1.6 0-4-1.5-10.5-1.5-10.8 0-.2-.2-.3-.4-.3-.1 0-.2.1-.2.2.1.2.3.7.5 1.7 1.2 4.2 1.2 10.4 1.2 10.4l1.3-2.6 1-.1s1.7-6.2.6-14.2c-1.2-7.9-9.1-8.8-9.1-8.8-6.5-3.3-10.8-1.7-14.9.2s-5.8 7.5-7.1 11.2c-.1.2-.1.5-.2.7-.1.6-.1 1.2-.1 1.7v1.3c.3 3.7 1.9 8 1.9 8z"/><path d="m58.8 16.6v-.1.1c0-.1 0-.1 0 0z"/><path d="m55 12.1c.1-.1.2-.2.3-.2.1-.1.1-.4 0-.5s-.4-.1-.5 0c-1.7 1.7-4 2.1-5.3 2.2.3-.3.6-.6.8-1.1.1-.2.1-.4-.1-.5s-.4-.1-.5.1c-1.2 1.9-2.6 2.1-3.5 2 .4-.3.8-.8 1.2-1.3.1-.2.1-.4-.1-.5s-.4-.1-.5.1c-.5.7-1.1 1.2-1.6 1.6 0 0 0 0-.1 0-.6.4-1.2.6-1.7.7.6-.6 1.1-1.1 1.3-1.6.1-.2 0-.4-.1-.5-.2-.1-.4 0-.5.1-.3.5-1 1.3-1.9 2.2-2.2 2.1-5.4 4.6-5.4 4.6-.1.1-.2.2-.1.3v.3l5.5-4.6c1.5.1 3-1 3-1 1.6.5 3.3-.4 3.3-.4 3 .3 5.9-1.9 5.9-1.9.9 2.3 4.7 5.8 4.7 5.8s-.1-.4-.2-.9c-1.6-1.4-3.4-4.1-3.9-5z"/><path d="m51.2 28.9c-.2-.1-.4 0-.5.2 0 0-.4 1-1.7 1.2-1.2.2-2-1.3-2-1.3-.1-.2-.3-.2-.5-.2-.2.1-.2.3-.2.5 0 .1.9 1.7 2.4 1.7h.4c1.7-.3 2.2-1.7 2.2-1.7.2-.1.1-.3-.1-.4z"/><path d="m52.9 34.3s-1.8 1.2-4 1.2c-2.9 0-3.9-1.1-4-1.1-.1-.2-.4-.2-.5 0-.2.1-.2.4 0 .5 0 .1 1.2 1.3 4.5 1.3 2.5 0 4.4-1.3 4.4-1.4.2-.1.2-.3.1-.5-.1-.1-.3-.2-.5 0z"/><ellipse cx="42.9" cy="25.5" rx="1" ry="1.2"/><path d="m43.6 20.8s.6.4.9-.3c.2-.7-.5-.8-.5-.8-1.5-.4-2.9-.2-3.9.4-.8.4-.6 1.1-.6 1.1 2.5-1.1 3.7-.6 4.1-.4z"/><path d="m59.8 25.8c.1-1.5-.2-2.6-.9-3.4-.8-.9-2.1-1.3-3.8-1.3-1.8 0-3.1.4-3.8 1.2-.4.5-.7 1-.8 1.6-1.5-.5-2.8-.2-3.4 0-.1-.6-.3-1.1-.8-1.6-.8-.8-2-1.2-3.8-1.2-1.7 0-3 .4-3.8 1.3-.7.8-1 2-.9 3.4.3 2.7 2.3 4.6 4.7 4.6 2.5 0 4.4-1.9 4.7-4.6 0-.1 0-.2 0-.3.3-.1 1.7-.5 3.2 0v.3c.2 2.7 2.2 4.6 4.7 4.6 2.4 0 4.4-1.9 4.7-4.6zm-13.1-.1c-.2 2.4-2 4.2-4.2 4.2s-3.9-1.7-4.2-4.2c-.1-1.2.2-2.3.8-3 .7-.8 1.8-1.2 3.4-1.2 1.7 0 2.8.4 3.5 1.1.8.9.8 2.1.7 3.1zm3.8-.7c-1.4-.4-2.6-.2-3.2 0 0-.2 0-.4 0-.6.4-.2 1.7-.6 3.2 0zm4.7 5.1c-2.2 0-4-1.7-4.2-4.2-.1-1.1-.1-2.4.7-3.2.7-.7 1.8-1.1 3.5-1.1 1.6 0 2.7.4 3.4 1.2.6.7.9 1.7.8 3.1-.2 2.4-2 4.2-4.2 4.2z"/><path d="m42.5 22.2c-1.4 0-2.4.3-3 1-.5.6-.7 1.4-.6 2.6.2 1.7 1.5 3.6 3.6 3.6 1.9 0 3.4-1.5 3.6-3.6.1-1.3-.1-2.1-.6-2.7s-1.6-.9-3-.9zm3.1 3.5c-.2 1.8-1.5 3.2-3.1 3.2-1.8 0-3-1.6-3.1-3.2-.1-1 .1-1.8.5-2.2.5-.5 1.4-.8 2.6-.8 1.3 0 2.2.2 2.7.7.4.4.5 1.1.4 2.3z"/><ellipse cx="54.8" cy="25.5" rx="1" ry="1.2"/><path d="m54 20.8c.4-.2 1.6-.6 4.1.4 0 0 .2-.7-.6-1.1-1-.6-2.4-.8-3.9-.4 0 0-.7.1-.5.8.3.7.9.3.9.3z"/><path d="m51.3 26v-.5h-.1z"/><path d="m55.1 22.2c-1.5 0-2.5.3-3 .9-.5.5-.7 1.4-.6 2.7.2 2 1.7 3.6 3.6 3.6 2.1 0 3.4-1.8 3.6-3.6.1-1.2-.1-2-.6-2.6-.6-.6-1.6-1-3-1zm3.2 3.5c-.2 1.6-1.3 3.2-3.1 3.2-1.6 0-3-1.3-3.1-3.2-.2-1.2 0-1.9.4-2.3.5-.5 1.4-.7 2.7-.7s2.1.3 2.6.8c.4.5.6 1.2.5 2.2z"/><path d="m44.1 32.4c-.2-.1-.4 0-.5.2l-.5 1.3c-.1.2 0 .4.2.5h.1c.1 0 .3-.1.3-.2l.5-1.3c.1-.2.1-.4-.1-.5z"/><path d="m44.9 33.8c.2 0 .3-.1.4-.3l.3-1.1c.1-.2-.1-.4-.2-.5-.2-.1-.4.1-.5.2l-.3 1.1c-.1.3.1.5.2.6z"/><path d="m46.4 33.1c.3 0 .4-.1.5-.3l.2-.7c0-.2-.1-.4-.3-.4s-.4.1-.4.3l-.3.7c0 .2.1.4.3.4z"/><path d="m54.5 32.7c-.1-.2-.3-.3-.5-.2s-.3.3-.2.5l.5 1.3c.1.1.2.2.3.2h.1c.2-.1.3-.3.2-.5z"/><path d="m53.1 33.5h.1c.2-.1.3-.3.2-.5l-.3-.8c-.1-.2-.3-.3-.5-.2s-.3.3-.2.5l.3.8c.1.1.2.2.4.2z"/><path d="m51.1 32.2.2.5c.1.1.2.2.3.2h.2c.2-.1.3-.3.2-.5l-.2-.5c-.1-.2-.3-.3-.5-.2s-.3.3-.2.5z"/><path d="m47.5 32v.4c0 .2.2.4.4.4s.4-.2.4-.4v-.4c0-.2-.2-.4-.4-.4s-.4.2-.4.4z"/><path d="m49.5 32v.4c0 .2.2.4.4.4s.4-.2.4-.4v-.4c0-.2-.2-.4-.4-.4s-.4.2-.4.4z"/><path d="m40.9 37.2c-.2-.1-.4-.1-.5.1l-.5.8c.1.2.3.4.4.7l.6-1.1c.2-.1.2-.4 0-.5z"/><path d="m39.7 38.5c-.1.2-.1.4.1.5.1 0 .1.1.2.1s.2-.1.3-.2l.1-.1c-.2-.2-.3-.4-.4-.7z"/><path d="m58.7 37c-.1-.2-.3-.2-.5-.1s-.2.3-.1.5l.7 1.2c.1.1.2.2.3.2s.1 0 .2-.1c.2-.1.2-.3.1-.5z"/><path d="m59.4 35.6c-.1-.1-.3-.1-.5 0-.1.2-.1.4 0 .5l.7.7c.1.1.2.1.2.1.1 0 .2 0 .3-.1.1-.2.1-.4 0-.5z"/><path d="m68.3 78.1h-10c-.1 0-.2 0-.3.1s-.1.2-.1.3l.7 12.9c0 .2.2.3.4.3h8.5c.2 0 .4-.2.4-.3l.9-12.9c0-.1 0-.2-.1-.3-.2-.1-.3-.1-.4-.1zm-1.2 12.8h-7.8l-.5-10.1h9zm.7-10.8h-9.1l-.1-1.3h9.3z"/><path d="m49.9 37.4h-1.7c-.2 0-.4.2-.4.4s.2.4.4.4h1.7c.2 0 .4-.2.4-.4s-.2-.4-.4-.4z"/></g></svg>