<svg enable-background="new 0 0 1748.9 573" viewBox="0 0 1748.9 573" xmlns="http://www.w3.org/2000/svg"><path d="m874.9 221.7 16.9 19c7.7-6.1 23-20.1 23-29.4 0-11.2-9.3-13.3-16.3-13.8h-.4c-2.1-.2-3.5 1.2-3.8 1.6-1.5 2.8-10.3 18.4-19.4 22.6z" fill="#fff"/><path d="m1106.2 432.6h-25.4c-.1 0-.5 0-1-.1-.1.1-.1.1-.2.2-.6.5-1.9 2.3-1.8 3.9.1 1.1 1 2.3 2.5 3.3 4.2 2.8 16 2.1 21.7 1.7.8 0 1.5-.1 2.1-.1 1.3 0 2.4.9 2.5 2.2s-.9 2.4-2.2 2.5c-.6 0-1.3.1-2 .1-3.9.1-7.9.2-11.5.2-.1 0-.2 0-.3 0-.9 0-5.7.5-5.7 5.1 0 1 .3 1.7 1 2.3 2.5 2.2 9 2.4 12.5 2h.3c5.5 0 9.9-4.5 9.9-9.9v-15.8c0 1.3-1.1 2.4-2.4 2.4z" fill="#fff"/><path d="m646.2 308.3v25.3c11.3 2.3 19.7 12.3 19.7 24.1 0 1.4-1 2.5-2.3 2.5h-17.4v42.1c1.5.3 3.1.5 4.8.8l40-42.1c.2-.3.4-.6.8-.8l19.1-20.1c.4-.5 1.1-.7 1.7-.7s1.2.3 1.7.7l23.8 24.6c.4.2.8.6 1 1l41.8 43.2 48.7-39.3c.9-.7 2.1-.7 3 0l89.7 72.8h154c-1.8-1.6-2.9-3.5-3.1-5.7-.2-2.6 1-4.8 2-6.2-.3-.3-.7-.5-1-.9-1.4-1.5-2.1-3.5-2-5.9.2-4.3 2.5-6.4 5.4-7.4-.4-1.5-.4-3.3.2-4.9 1.5-4.3 5.9-7.4 11.8-8.3 1.9-.3 3.7-.5 5.4-.8v-94zm181.9 46.7c-.6.4-1.2.7-1.9.7h-64.2c-1.2 0-2.2-.9-2.3-2.2-.1-1-.1-1.9-.1-2.8 0-14.2 8.7-25.7 19.5-25.7 6.7 0 12.9 4.6 16.5 12 3.5-2.3 7.5-3.5 11.7-3.5 11.1 0 20.5 8.6 21.4 19.7.1.7-.2 1.3-.6 1.8zm156.4 44.3h-54.5v-17.3h54.5zm-47.9-50.1c-1.3 0-2.4-1.1-2.4-2.4s1.1-2.4 2.4-2.4h116.1c1.3 0 2.4 1.1 2.4 2.4s-1.2 2.4-2.5 2.4zm104.6 10.5c0 1.3-1.1 2.4-2.4 2.4h-88.3c-1.3 0-2.4-1.1-2.4-2.4s1.1-2.4 2.4-2.4h88.3c1.3 0 2.4 1.1 2.4 2.4zm18 39.6h-54.5v-17.3h54.5zm8.5-62.9h-146.2c-1.3 0-2.4-1.1-2.4-2.4s1.1-2.4 2.4-2.4h146.2c1.3 0 2.4 1.1 2.4 2.4s-1.1 2.4-2.4 2.4z" fill="#4088da"/><path d="m1106.2 420.6c-.1 0-11.5-.2-17.2-.2-.7 0-1.5 0-2.3 0-6.9-.2-9.8.3-9.9 3.8 0 1.1.2 1.8.7 2.4 1 1 2.9 1.2 3.3 1.2h25.4c1.3 0 2.4 1.1 2.4 2.4v-11.9c0 1.3-1.1 2.3-2.4 2.3z" fill="#fff"/><path d="m807.1 338.1c-4.1 0-8 1.5-11.1 4.2-.6.5-1.4.7-2.2.5s-1.4-.8-1.6-1.5c-2.5-7.2-7.7-11.8-13.2-11.8-8.2 0-14.8 9.4-14.8 21v.4h59.2c-1.8-7.4-8.5-12.8-16.3-12.8z" fill="#fff"/><path d="m1082.2 413.1c-.3.9-.3 1.9 0 2.6 1.6-.1 3.2-.1 4.6 0h2.2c5.7 0 17.2.2 17.3.2 1.3 0 2.3 1.1 2.3 2.4v-13.5c-1.2.2-9.1 1.9-18.4 3.2-4.1.6-7.2 2.5-8 5.1z" fill="#fff"/><path d="m872.8 447.2c.1.3.2.6.1.9v80.5h222.1v-67.9c-3.7 0-9.1-.5-12.2-3.3-1.7-1.5-2.6-3.5-2.6-5.8 0-1.7.4-3.2 1-4.4h-159.7zm92.6 15.4h109c1.3 0 2.4 1.1 2.4 2.4s-1.1 2.4-2.4 2.4h-109c-1.3 0-2.4-1.1-2.4-2.4s1.1-2.4 2.4-2.4zm0 20.2h109c1.3 0 2.4 1.1 2.4 2.4s-1.1 2.4-2.4 2.4h-109c-1.3 0-2.4-1.1-2.4-2.4s1.1-2.4 2.4-2.4zm0 20.2h64.2c1.3 0 2.4 1.1 2.4 2.4s-1.1 2.4-2.4 2.4h-64.2c-1.3 0-2.4-1.1-2.4-2.4s1.1-2.4 2.4-2.4zm-22.8 2.5h-62v-40.5h62z" fill="#fff"/><path d="m868.4 447.2h-183.6-24.3c.6 1.2 1.1 2.7 1.1 4.5 0 2.3-.9 4.3-2.6 5.8-3.2 2.7-8.5 3.2-12.2 3.2-.2 0-.4 0-.6 0v69.6h222v-82.2c0-.3.1-.6.2-.9zm-152.5 60h-62v-40.5h62zm87 2.3h-64.2c-1.3 0-2.4-1.1-2.4-2.4s1.1-2.4 2.4-2.4h64.2c1.3 0 2.4 1.1 2.4 2.4s-1.1 2.4-2.4 2.4zm44.8-20.2h-109c-1.3 0-2.4-1.1-2.4-2.4s1.1-2.4 2.4-2.4h109c1.3 0 2.4 1.1 2.4 2.4s-1.1 2.4-2.4 2.4zm0-20.3h-109c-1.3 0-2.4-1.1-2.4-2.4s1.1-2.4 2.4-2.4h109c1.3 0 2.4 1.1 2.4 2.4s-1.1 2.4-2.4 2.4z" fill="#fff"/><path d="m838.4 388.4c.3-.1.5-.1.8 0l10.5 1.3-18.7-15.2-19.3 15.6 6.4 2.8z" fill="#fff"/><path d="m1095 300.6c0-14.2-11.5-25.7-25.7-25.7h-40.7-316-40.7c-14.2 0-25.7 11.5-25.7 25.7v2.9h448.8zm-428.3-1.3c-5.1 0-9.2-4.1-9.2-9.2s4.1-9.2 9.2-9.2 9.2 4.1 9.2 9.2c-.1 5.1-4.2 9.2-9.2 9.2zm24.7 0c-5.1 0-9.2-4.1-9.2-9.2s4.1-9.2 9.2-9.2 9.2 4.1 9.2 9.2c-.1 5.1-4.2 9.2-9.2 9.2zm24.7 0c-5.1 0-9.2-4.1-9.2-9.2s4.1-9.2 9.2-9.2 9.2 4.1 9.2 9.2c-.1 5.1-4.2 9.2-9.2 9.2z" fill="#fff"/><path d="m856.5 395.2-17.5-2.2-20.6 4.5c-.2.1-.4.2-.6.2-.3 0-.6-.1-.9-.2l-9.4-4.1-23.4 18.9 29.1 30.1h101.5z" fill="#25ce9e"/><path d="m661.1 355.5c-1-8.2-6.9-14.9-14.9-16.9v16.9z" fill="#fff"/><path d="m716.1 285.6c-2.5 0-4.5 2-4.5 4.5s2 4.5 4.5 4.5 4.5-2 4.5-4.5c-.1-2.5-2.1-4.5-4.5-4.5z" fill="#fff"/><path d="m782.2 442.4h24.5l-70.5-72.9-13 4.1c-.6.2-1.2.1-1.8-.1l-12.8-6.2-8.9 6.1c-.3.3-.7.4-1.2.4-.2 0-.3 0-.5-.1-.6-.1-1.2-.5-1.5-1.1l-3.8-6.6-36.4 38.2c3.8 1.4 6.6 3.9 7.7 7.3.6 1.7.6 3.4.2 4.9 2.9 1 5.2 3.1 5.4 7.4.1 2.3-.6 4.4-2 5.9-.3.3-.6.6-1 .9 1 1.4 2.2 3.6 2 6.2-.2 2.1-1.2 4-3 5.6h18.4c28-24.2 70.1-24.3 98.2 0z" fill="#25ce9e"/><g fill="#fff"><path d="m691.5 442.4h83.2c-24.7-18.1-58.6-18-83.2 0z"/><path d="m650.5 407.6c-8.9-1.2-16.3-2.7-17.4-2.9v13.3c0-1.3 1-2.4 2.3-2.4.1 0 11.5-.2 17.3-.2h2.2c1.4 0 3-.1 4.6 0 .3-.7.3-1.6 0-2.6-.8-2.4-3.5-4.2-7.2-4.9-.6.1-1.2 0-1.8-.3z"/><path d="m707.1 362.6c.7-.5 1.6-.5 2.4-.2l13.1 6.4 9.9-3.1-19.9-20.6-16.6 17.4 3.2 5.5z"/><path d="m1107.9 399.9c.3-.1.6-.1.8 0v-16.3c0-5.2-4.1-9.4-9.1-9.9v27.8c4.9-.9 8.2-1.6 8.3-1.6z"/><path d="m800.6 102c.3 10.6 1.9 30 10.4 39 2.3 2.4 4.9 3.8 7.9 4.3v-16h-.8c-6 0-10.9-4.9-10.9-10.9v-9.8c-2.5-2.1-4.7-4.3-6.6-6.6z"/><path d="m224.7 536.1h13.7v-35.4c0-.2 0-.4.1-.6v-13.1h-13.9v26.4c.1.2.1.4.1.6z"/><path d="m633.1 383.9v16.1h.8c.1 0 3 .6 7.5 1.4v-27.3c-4.7.8-8.3 4.9-8.3 9.8z"/><path d="m691.4 285.6c-2.5 0-4.5 2-4.5 4.5s2 4.5 4.5 4.5 4.5-2 4.5-4.5c-.1-2.5-2.1-4.5-4.5-4.5z"/><path d="m643 455.8h.3c3.5.4 10.1.2 12.5-2 .7-.6 1-1.3 1-2.3 0-4.8-5.1-5.1-5.7-5.1-.1 0-.2 0-.3 0-3.6.1-7.6-.1-11.5-.3-.7 0-1.4-.1-2-.1-1.3-.1-2.3-1.2-2.2-2.5s1.2-2.3 2.5-2.2c.6 0 1.3.1 2.1.1 5.7.3 17.6 1 21.7-1.7 1.6-1.1 2.4-2.2 2.5-3.3.1-1.7-1.2-3.4-1.8-3.9-.1-.1-.1-.1-.2-.2-.5.1-.9.1-1 .1h-25.4c-1.3 0-2.4-1.1-2.4-2.4v15.9c0 5.5 4.5 9.9 9.9 9.9z"/><path d="m635.5 427.6h25.4c.6 0 2.4-.2 3.3-1.3.5-.6.8-1.3.7-2.4-.1-3.5-3-3.9-9.9-3.8-.8 0-1.6 0-2.3 0-5.7 0-17.1.2-17.2.2-1.3 0-2.3-1-2.4-2.3v12c0-1.3 1.1-2.4 2.4-2.4z"/><path d="m447.7 536.1h13.8v-107-21.7h-13.9v13.4c.1.2.1.4.1.6z"/><path d="m387.1 486.5c0-.2 0-.4.1-.6v-26.5h-13.9v46.6 30.1h13.8z"/><path d="m442.9 423.8h-13.8v28 84.3h13.8z"/><path d="m849.3 240.7 16.9-19c-9.1-4.2-17.9-19.8-19.4-22.6-.3-.4-1.5-1.6-3.4-1.6-.1 0-.2 0-.4 0h-.4c-6.9.5-16.1 2.6-16.3 13.4.1.3.1.6 0 .9.6 9.3 15.5 22.9 23 28.9z"/><path d="m831.3 121.6c6.5 2.2 13 2.5 19.7 1.1 2.5-.5 4.9-1.7 6.4-3.9 1.4-2.1 2.6-4.2 3.6-6.5 1.6-3.6 2.6-7.4 2.5-11.4 0-2.2-.7-4.1-2.5-5.5-1-.7-2-1.4-3.2-1.8-2.5-1.1-5.2-1.8-7.9-2.2-2.8-.4-5.5-.6-8.2-.6-1.1 0-2.1 0-3.2.1-3.4.2-7.4.4-10.5 1.7-3.2 1.4-4.6 4.3-4.7 7.6-.3 5.2.5 10.3 2 15.3 1 3 3 5.1 6 6.1zm11.5-18.1c1.9 0 3.5 1.6 3.5 3.5s-1.6 3.5-3.5 3.5-3.5-1.6-3.5-3.5 1.6-3.5 3.5-3.5z"/></g><path d="m836.7 42.2c-8.4-7.1-14.7-12.8-17.6-15.4-5.6 5.7-24.6 27-24 49.2.2 6.2 1.9 11.9 5.1 17.3.1.2.3.4.3.6 1.8 2.9 4.1 5.7 6.8 8.4v-5.1c0-6 4.9-10.9 10.9-10.9h.7c.9-24.8 12.6-39 17.8-44.1zm-15.3 6.3c-.7.4-16.5 10.3-15.2 32.9.1 1.3-.9 2.4-2.2 2.5-.1 0-.2 0-.2 0-1.2 0-2.3-1-2.3-2.2-1.5-25.5 16.7-36.7 17.5-37.2 1.1-.7 2.6-.3 3.2.8.7 1.1.3 2.6-.8 3.2z" stroke="#000" stroke-miterlimit="10" stroke-width="2"/><path d="m842.3 40.5c.1.1.2.3.3.4 18.4 15.3 45.4 36.3 69.2 49.1 3.3.4 6.6.9 10 1.4 1.7.2 1.9.6 2 2.4 0 .5 0 1.1.1 1.6v.4c5.9 2.5 11.4 4.2 16.4 5 1.5-4 5.1-15.1 5.6-28 .8-21.5-6.8-38-22.7-48.9-36-24.8-75.2-24.8-100.8-.4 3.1 2.8 9.8 8.7 18.7 16.2.5.2.9.4 1.2.8zm91.2 13.9c1.3 0 2.4.9 2.6 2.1.3 1.4-.6 2.8-2.1 3.1-.1.1-.3.1-.5.1-1.3 0-2.4-.9-2.6-2.1-.3-1.4.6-2.8 2.1-3.1.2 0 .4-.1.5-.1zm-68.1-41c.2-1.3 1.4-2.2 2.6-2 53 7.2 63.7 33.2 64.2 34.3.5 1.2-.1 2.6-1.3 3-.3.1-.6.1-.9.1-.9 0-1.8-.6-2.2-1.5-.1-.3-10.5-24.6-60.4-31.3-1.3-.2-2.2-1.4-2-2.6z" stroke="#000" stroke-miterlimit="10" stroke-width="2"/><path d="m921.7 129.3h-1.1v15.8c10.6-2.6 18.3-21.8 18.9-39.7-2.2-.3-4.5-.9-6.9-1.5v14.5c0 6-4.9 10.9-10.9 10.9z" fill="#fff"/><path d="m871.1 218.1c5.8-.8 14.5-12.8 18.8-20.9v-19.5c-1-.3-1.8-1.2-1.8-2.3 0-1.3 1.1-2.4 2.4-2.4 14 0 25.3-11.4 25.3-25.3v-20.7c0-1.3 1.1-2.4 2.4-2.4h3.4c3.4 0 6.2-2.8 6.2-6.2v-16.1c-1.9-.7-3.9-1.5-5.9-2.3-.2.4-.3.8-.5 1.2-1 4.4-1.8 8.8-2.8 13.2-1.5 6.2-5.7 9.3-11.8 10.1-2.9.4-5.8 1.1-8.7 1-3.5-.1-7-.3-10.3-1.6-1.5-.6-3.1-1.5-4.2-2.7-2.1-2.1-3.5-4.3-4.7-6.7-1.5-3-2.5-6.3-3.6-9.5-.5-1.4-.6-3-1.5-4.2-.5-.6-1.1-1-1.8-1.2.1 2.3.4 10-2.1 16.9-1.9 5.2-4.4 9.8-5.9 12.3l7.7 4.7c1.1.7 1.5 2.1.8 3.2-.3.8-1.1 1.2-1.9 1.2-.4 0-.8-.1-1.2-.3l-9.7-5.9c-.5-.3-.9-.9-1.1-1.5-.1-.6 0-1.3.3-1.8 0-.1 4-6.2 6.6-13.5 2.1-5.6 2-12.1 1.9-14.5-.9.9-1.2 2.4-1.5 3.6-.8 2.9-1.6 5.9-2.9 8.7-1 2.2-2.3 4.2-3.8 6.2-1 1.4-2.1 2.7-3.5 3.7-1.5 1.1-3.4 1.5-5.2 1.8-6.3 1.2-12.5.8-18.7-.7-5.2-1.2-8.2-4.7-9.4-9.8-.9-3.6-1.6-7.2-2.3-10.9-.5-2.1-.8-4.2-2.5-5.8-.2-.2-.3-.6-.3-.9.1-1.4-.1-2.9.4-4.1.3-.8 1-1.1 1.7-1.2h-1.3c-3.4 0-6.2 2.8-6.2 6.2v21.3c0 3.4 2.8 6.2 6.2 6.2h3.2c1.3 0 2.4 1.1 2.4 2.4v20.9c0 13.7 10.9 24.8 24.3 25.3.3-.1.6-.2.9-.2s.6.1.9.2h11.5c1.3 0 2.4 1.1 2.4 2.4s-1.2 2.1-2.5 2.1h-9.9v19.4c4.4 8 13 20.1 18.8 20.9.2 0 .3-.1.5-.1s.3 0 .5.1zm-22.8-69.2c0-1.3 1.1-2.4 2.4-2.4h39.9c1.3 0 2.4 1.1 2.4 2.4-.1 9-10.1 16.2-22.4 16.2s-22.3-7.3-22.3-16.2z" fill="#fff"/><path d="m868.2 226.7-16.7 18.8c-.5.5-1.2.8-1.8.8-.5 0-1-.2-1.4-.5-1-.7-22.8-17.2-26.2-31.1l-94.6 38.2c-7.2 2.9-12 9.6-12.5 17.3h153.2zm-75.7 16-49.7 19.7c-.3.1-.6.2-.9.2-.9 0-1.8-.6-2.2-1.5-.5-1.2.1-2.6 1.3-3.1l49.7-19.7c1.2-.5 2.6.1 3.1 1.3s-.1 2.6-1.3 3.1zm12.8-6.4c-.2.1-.4.1-.5.1-1.3 0-2.4-.9-2.6-2.1-.3-1.4.6-2.8 2.1-3.1.2 0 .4-.1.5-.1 1.3 0 2.4.9 2.6 2.1.3 1.4-.6 2.8-2.1 3.1z" fill="#fff"/><path d="m887.8 151.3h-34.4c1.7 5.1 8.9 9.1 17.2 9.1s15.5-4 17.2-9.1z" fill="#fff"/><path d="m899.9 90.7c-2 .1-3.9.1-5.8.3-3.9.4-7.6 1.2-11.2 2.8-3.9 1.8-5.4 4.1-5.1 8.4.3 4.9 2.1 9.5 4.3 13.8 2.3 4.5 6.1 6.7 10.9 7.2 5.1.6 10.1.1 15-1.1 3.9-1 6.8-3.1 8.1-7 1.7-5.1 2.2-10.3 1.8-15.6 0-.4-.1-.9-.2-1.3-4.6-2.1-9.3-4.6-14.1-7.3-1.2-.1-2.5-.2-3.7-.2zm-1.5 19.8c-1.9 0-3.5-1.6-3.5-3.5s1.6-3.5 3.5-3.5 3.5 1.6 3.5 3.5-1.6 3.5-3.5 3.5z" fill="#fff"/><path d="m484.9 536.1h13.7v-112.2c0-.2 0-.4.1-.6v-46h-13.9v51.2c.1.2.1.4.1.6z" fill="#fff"/><path d="m823.4 87.5c.2.3.3.7.3 1.1 0 .8-.4 1.5-1.1 2 9.2-1.6 18.4-1.9 27.7-.6 3.2.5 6.5 1.2 9.6 2.3 6.9 2.3 13.8 2.4 20.7.2 6.6-2.2 13.4-3.2 20.3-3.2-21.6-12.8-44.3-30.4-60.6-44-4.3 4.3-16.2 18.1-16.9 42.2zm26.1-6.5c-.1 1.3-1.2 2.3-2.5 2.2l-20.6-1.7c-.3.1-.5 0-.7-.1-.9-.4-1.6-1.3-1.5-2.4.1-1.3 1.2-2.3 2.5-2.2l20.6 1.7c1.3.1 2.3 1.2 2.2 2.5z" fill="#fff"/><path d="m1026.2 270.2c-.5-7.7-5.3-14.4-12.5-17.3l-94.6-38.2c-3.3 13.9-25.1 30.3-26.2 31.1-.4.4-.9.5-1.4.5-.7 0-1.3-.3-1.8-.8l-16.7-18.8v43.5z" fill="#fff"/><path d="m930 382h54.5v17.3h-54.5z" fill="#fabf62"/><path d="m1004.7 382h54.5v17.3h-54.5z" fill="#fff"/><path d="m842.3 40.5c-.3-.4-.7-.6-1.2-.8.5.4.9.8 1.4 1.2 0-.1-.1-.3-.2-.4z"/><path d="m819 44.5c-.8.5-19 11.7-17.5 37.2 0 1.2 1.1 2.2 2.3 2.2h.2c1.3-.1 2.3-1.2 2.2-2.5-1.3-22.6 14.5-32.5 15.2-32.9 1.1-.6 1.5-2.1.8-3.2-.6-1.1-2.1-1.5-3.2-.8z" fill="#fff"/><path d="m868.2 220.3c0-.1 0-.2 0-.2s0 .1 0 .2z"/><path d="m872.4 218.8c.1.1.1.1.2.2-.1-.1-.2-.1-.2-.2z"/><path d="m873 220v.2s0-.1 0-.2z"/><path d="m930.9 57.6c.2 1.2 1.3 2.1 2.6 2.1.2 0 .4 0 .5-.1 1.5-.3 2.4-1.7 2.1-3.1-.2-1.2-1.3-2.1-2.6-2.1-.1 0-.3.1-.5.1-1.5.3-2.4 1.7-2.1 3.1z" fill="#fff"/><path d="m800.4 93.8c-.1-.2-.2-.4-.3-.6.1.3.2.5.3.6z"/><path d="m867.4 16c49.9 6.7 60.3 31 60.4 31.3.4.9 1.3 1.5 2.2 1.5.3 0 .6 0 .9-.1 1.2-.4 1.8-1.8 1.3-3-.5-1.1-11.2-27.1-64.2-34.3-1.2-.2-2.4.7-2.6 2-.2 1.2.7 2.4 2 2.6z" fill="#fff"/><path d="m691.1 361 .8-.8c-.4.2-.7.4-.8.8z"/><path d="m738.1 364.7 1 1c-.2-.4-.6-.8-1-1z"/><path d="m1378 254.8h-6c-1.3 0-2.4-1.1-2.4-2.4s1.1-2.4 2.4-2.4h6c1.3 0 2.4 1.1 2.4 2.4 0 1.4-1.1 2.4-2.4 2.4zm-21 0h-6c-1.3 0-2.4-1.1-2.4-2.4s1.1-2.4 2.4-2.4h6c1.3 0 2.4 1.1 2.4 2.4 0 1.4-1.1 2.4-2.4 2.4zm-21 0h-3c-1.3 0-2.4-1.1-2.4-2.4s1.1-2.4 2.4-2.4h3c1.3 0 2.4 1.1 2.4 2.4 0 1.4-1.1 2.4-2.4 2.4z"/><path d="m1687.9 274.1h-6c-1.3 0-2.4 1.1-2.4 2.4s1.1 2.4 2.4 2.4h6c1.3 0 2.4-1.1 2.4-2.4-.1-1.3-1.1-2.4-2.4-2.4z"/><path d="m1666.9 274.1h-6c-1.3 0-2.4 1.1-2.4 2.4s1.1 2.4 2.4 2.4h6c1.3 0 2.4-1.1 2.4-2.4-.1-1.3-1.1-2.4-2.4-2.4z"/><path d="m1729.9 274.1h-6c-1.3 0-2.4 1.1-2.4 2.4s1.1 2.4 2.4 2.4h6c1.3 0 2.4-1.1 2.4-2.4-.1-1.3-1.1-2.4-2.4-2.4z"/><path d="m1744.9 274.1c-1.3 0-2.4 1.1-2.4 2.4s1.1 2.4 2.4 2.4h4v-4.7h-4z"/><path d="m1708.9 274.1h-6c-1.3 0-2.4 1.1-2.4 2.4s1.1 2.4 2.4 2.4h6c1.3 0 2.4-1.1 2.4-2.4-.1-1.3-1.1-2.4-2.4-2.4z"/><path d="m1401.5 370.5h68.8c13 0 23.5-10.5 23.5-23.5v-167c0-13-10.5-23.5-23.5-23.5h-68.8c-13 0-23.5 10.5-23.5 23.5v167c0 13 10.5 23.5 23.5 23.5z" fill="#4088da"/><path d="m1470.3 372.8h-68.8c-14.3 0-25.9-11.6-25.9-25.9v-166.9c0-14.3 11.6-25.9 25.9-25.9h68.8c14.3 0 25.9 11.6 25.9 25.9v167c0 14.2-11.6 25.8-25.9 25.8zm-68.8-214c-11.7 0-21.2 9.5-21.2 21.2v167c0 11.7 9.5 21.2 21.2 21.2h68.8c11.7 0 21.2-9.5 21.2-21.2v-167c0-11.7-9.5-21.2-21.2-21.2z"/><path d="m1378 180h115.9v72.5h-115.9z" fill="#fff"/><path d="m1493.9 254.8h-115.9c-1.3 0-2.4-1.1-2.4-2.4v-72.4c0-1.3 1.1-2.4 2.4-2.4h115.9c1.3 0 2.4 1.1 2.4 2.4v72.5c-.1 1.3-1.1 2.3-2.4 2.3zm-113.5-4.7h111.1v-67.8h-111.1z"/><path d="m1378 252.5h115.9v73.6h-115.9z" fill="#25ce9e"/><path d="m1493.9 328.4h-115.9c-1.3 0-2.4-1.1-2.4-2.4v-73.6c0-1.3 1.1-2.4 2.4-2.4h115.9c1.3 0 2.4 1.1 2.4 2.4v73.6c-.1 1.3-1.1 2.4-2.4 2.4zm-113.5-4.7h111.1v-68.9h-111.1z"/><path d="m1378 326h115.9v14.2h-115.9z" fill="#fff"/><path d="m1493.9 342.6h-115.9c-1.3 0-2.4-1.1-2.4-2.4v-14.2c0-1.3 1.1-2.4 2.4-2.4h115.9c1.3 0 2.4 1.1 2.4 2.4v14.2c-.1 1.3-1.1 2.4-2.4 2.4zm-113.5-4.7h111.1v-9.5h-111.1z"/><path d="m1137.4 572.5 17.9-119.2h20.8l21 119.2z" fill="#fabf62"/><path d="m1178.5 452.9c-.2-1.1-1.2-1.9-2.3-1.9h-20.9c-1.2 0-2.2.9-2.3 2l-18 119.2v.3h4.7l17.6-116.9h16.9l20.5 116.9h4.7c0-.1 0-.3 0-.4z"/><path d="m1197.1 572.5 41.2-229.4h68l36.6 229.4z" fill="#ebf0f6"/><path d="m1308.6 342.7c-.2-1.1-1.2-2-2.3-2h-68c-1.1 0-2.1.8-2.3 1.9l-41.2 229.5v.4h4.7l40.8-227.1h64l36.3 227.1h4.7c0-.1 0-.2 0-.4z"/><path d="m281.7 397.5c-1.3 0-2.4-1.1-2.4-2.4v-6c0-1.3 1.1-2.4 2.4-2.4s2.4 1.1 2.4 2.4v6c0 1.4-1.1 2.4-2.4 2.4zm0-21c-1.3 0-2.4-1.1-2.4-2.4v-6c0-1.3 1.1-2.4 2.4-2.4s2.4 1.1 2.4 2.4v6c0 1.4-1.1 2.4-2.4 2.4zm0-21c-1.3 0-2.4-1.1-2.4-2.4v-5.7c0-1.3 1.1-2.4 2.4-2.4s2.4 1.1 2.4 2.4v5.7c0 1.4-1.1 2.4-2.4 2.4z"/><path d="m3 463.2c1.3 0 2.4-1.1 2.4-2.4s-1.1-2.4-2.4-2.4h-3v4.7h3z"/><path d="m21.3 463.2h-5.2c-1.3 0-2.4-1.1-2.4-2.4s1.1-2.4 2.4-2.4h5.2c1.3 0 2.4 1.1 2.4 2.4s-1.1 2.4-2.4 2.4z"/><path d="m37.4 463.2h-3c-1.3 0-2.4-1.1-2.4-2.4s1.1-2.4 2.4-2.4h3c1.3 0 2.4 1.1 2.4 2.4s-1.1 2.4-2.4 2.4z"/><path d="m123.2 503.6c-1 0-1.9-.6-2.2-1.6l-11.1-30.7c-.4-1.2.2-2.6 1.4-3s2.6.2 3 1.4l11.1 30.7c.4 1.2-.2 2.6-1.4 3-.3.1-.5.2-.8.2z"/><path d="m318.7 244.6c-.6 0-1.2-.2-1.7-.7l-7.6-7.6c-.9-.9-.9-2.4 0-3.3l14.3-14.3c.9-.9 2.4-.9 3.3 0l7.6 7.6c.9.9.9 2.4 0 3.3l-14.3 14.3c-.3.4-.9.7-1.6.7zm-4.2-9.9 4.2 4.2 11-11-4.2-4.2z"/><path d="m333.9 237.2-17.7-17.7 13.4-13.4c2.2-2.2 5.8-2.2 8 0l9.7 9.7c2.2 2.2 2.2 5.8 0 8z" fill="#4088da"/><path d="m333.9 239.5c-.6 0-1.2-.2-1.7-.7l-17.7-17.7c-.9-.9-.9-2.4 0-3.3l13.4-13.4c3.1-3.1 8.2-3.1 11.3 0l9.7 9.7c3.1 3.1 3.1 8.2 0 11.3l-13.4 13.4c-.4.5-1 .7-1.6.7zm-14.3-20 14.3 14.3 11.7-11.7c1.3-1.3 1.3-3.4 0-4.6l-9.7-9.7c-1.3-1.3-3.4-1.3-4.6 0z"/><path d="m192.7 244.6c-.6 0-1.2-.2-1.7-.7l-14.3-14.3c-.4-.4-.7-1-.7-1.7 0-.6.2-1.2.7-1.7l7.6-7.6c.9-.9 2.4-.9 3.3 0l14.3 14.3c.9.9.9 2.4 0 3.3l-7.6 7.6c-.4.5-1 .8-1.6.8zm-11-16.7 11 11 4.2-4.2-11-11z"/><path d="m195.2 219.5-17.7 17.7-13.4-13.4c-2.2-2.2-2.2-5.8 0-8l9.7-9.7c2.2-2.2 5.8-2.2 8 0z" fill="#4088da"/><path d="m177.5 239.5c-.6 0-1.2-.2-1.7-.7l-13.4-13.4c-3.1-3.1-3.1-8.2 0-11.3l9.7-9.7c3.1-3.1 8.2-3.1 11.3 0l13.4 13.4c.9.9.9 2.4 0 3.3l-17.7 17.7c-.4.5-1 .7-1.6.7zm.3-32.7c-.8 0-1.7.3-2.3 1l-9.7 9.7c-1.3 1.3-1.3 3.4 0 4.6l11.7 11.7 14.3-14.3-11.7-11.7c-.6-.7-1.5-1-2.3-1z"/><path d="m272.3 216h-33.1c-1.3 0-2.4-1.1-2.4-2.4v-23.1c0-1.3 1.1-2.4 2.4-2.4h33.1c1.3 0 2.4 1.1 2.4 2.4v23.1c-.1 1.3-1.1 2.4-2.4 2.4zm-30.8-4.7h28.4v-18.4h-28.4z"/><path d="m1608.8 249.6c-1.3 0-2.4-1.1-2.4-2.4v-103.6l-12.5 18.6c-.7 1.1-2.2 1.4-3.3.6-1.1-.7-1.4-2.2-.6-3.3l16.8-25c.6-.9 1.7-1.2 2.6-.9 1 .3 1.7 1.2 1.7 2.3v111.3c0 1.3-1 2.4-2.3 2.4z"/><path d="m1608.8 249.6c-1.3 0-2.4-1.1-2.4-2.4v-111.3c0-1 .7-2 1.7-2.3s2.1.1 2.6.9l16.8 25c.7 1.1.4 2.5-.6 3.3-1.1.7-2.5.4-3.3-.6l-12.5-18.6v103.6c0 1.3-1 2.4-2.3 2.4z"/><path d="m1354.1 418.5h167.9v92.3h-167.9z" fill="#ebf0f6"/><path d="m1522 513.2h-167.9c-1.3 0-2.4-1.1-2.4-2.4v-92.3c0-1.3 1.1-2.4 2.4-2.4h167.9c1.3 0 2.4 1.1 2.4 2.4v92.3c0 1.3-1.1 2.4-2.4 2.4zm-165.5-4.7h163.2v-87.6h-163.2z"/><path d="m1438.1 483.6c-.5 0-1-.2-1.4-.5l-83.9-62.8c-1-.8-1.3-2.3-.5-3.3s2.3-1.3 3.3-.5l82.5 61.7 82.5-61.2c1-.8 2.5-.6 3.3.5.8 1 .6 2.5-.5 3.3l-83.9 62.3c-.4.4-.9.5-1.4.5z"/><path d="m1522 513.2c-.5 0-1.1-.2-1.5-.5l-58.9-48.1c-1-.8-1.2-2.3-.3-3.3.8-1 2.3-1.2 3.3-.3l58.9 48.1c1 .8 1.2 2.3.3 3.3-.4.5-1.1.8-1.8.8z"/><path d="m880.6 464.6h62v40.5h-62z" fill="#4088da"/><path d="m870.6 528.2h226.7v42.7h-226.7z" fill="#ebf0f6"/><path d="m1074.4 466.9h-109c-1.3 0-2.4-1.1-2.4-2.4s1.1-2.4 2.4-2.4h109c1.3 0 2.4 1.1 2.4 2.4s-1.1 2.4-2.4 2.4z"/><path d="m1074.4 487.2h-109c-1.3 0-2.4-1.1-2.4-2.4s1.1-2.4 2.4-2.4h109c1.3 0 2.4 1.1 2.4 2.4s-1.1 2.4-2.4 2.4z"/><path d="m1029.6 507.4h-64.2c-1.3 0-2.4-1.1-2.4-2.4s1.1-2.4 2.4-2.4h64.2c1.3 0 2.4 1.1 2.4 2.4s-1.1 2.4-2.4 2.4z"/><circle cx="255.7" cy="282.8" fill="#4088da" r="78.1"/><ellipse cx="255.7" cy="282.8" fill="#ebf0f6" rx="62.8" ry="62.8" transform="matrix(.7071 -.7071 .7071 .7071 -125.0937 263.6546)"/><path d="m255.7 348c-35.9 0-65.1-29.2-65.1-65.1s29.2-65.1 65.1-65.1 65.1 29.2 65.1 65.1c0 35.8-29.2 65.1-65.1 65.1zm0-125.6c-33.3 0-60.4 27.1-60.4 60.4s27.1 60.4 60.4 60.4 60.4-27.1 60.4-60.4-27.1-60.4-60.4-60.4z"/><path d="m85.3 418c-34.3 17.1-53.2 33.8-48.5 47 .6 1.6 1.1 3 1.5 4.2s.9 2.6 1.5 4.2c4.8 13.2 30 14 67.3 5.3s69.3 5.3 69.3 5.3l-20.4-57.2-20.6-57.2c-.1.1-15.8 31.3-50.1 48.4z" fill="#fabf62"/><circle cx="281.7" cy="440.6" fill="#fabf62" r="45.4"/><path d="m281.7 488.4c-26.3 0-47.8-21.4-47.8-47.8 0-26.3 21.4-47.8 47.8-47.8s47.8 21.4 47.8 47.8-21.4 47.8-47.8 47.8zm0-90.9c-23.8 0-43.1 19.3-43.1 43.1s19.3 43.1 43.1 43.1 43.1-19.3 43.1-43.1-19.3-43.1-43.1-43.1z"/><circle cx="669.1" cy="164.3" fill="#25ce9e" r="35.5"/><ellipse cx="1113.5" cy="166" fill="#fabf62" rx="49.9" ry="49.9" transform="matrix(.9732 -.2298 .2298 .9732 -8.3635 260.2621)"/><path d="m1113.5 218.3c-28.8 0-52.2-23.4-52.2-52.2s23.4-52.2 52.2-52.2 52.2 23.4 52.2 52.2c0 28.7-23.4 52.2-52.2 52.2zm0-99.8c-26.2 0-47.5 21.3-47.5 47.5s21.3 47.5 47.5 47.5 47.5-21.3 47.5-47.5-21.3-47.5-47.5-47.5z"/><path d="m653.9 466.2h62v40.5h-62z" fill="#fabf62"/><path d="m643.9 529.8h226.7v42.7h-226.7z" fill="#25ce9e"/><path d="m930 381.5h54.5v17.3h-54.5z" fill="#fabf62"/><path d="m1395.7 200.2h79.7v23.1h-79.7z" fill="#4088da"/><path d="m1668.7 246.9c0-33.8-28.1-61.1-62.2-59.8-30.8 1.2-56 26.1-57.5 56.8-.8 16.3 4.9 31.2 14.7 42.4 10.9 12.5 16.6 28.8 16.6 45.4v.7h57v-.5c0-17.1 6.4-33.5 17.4-46.6 8.7-10.4 14-23.8 14-38.4z" fill="#fabf62"/><path d="m135.1 336h-96.6c-1.2 0-2.2-.9-2.3-2.1-.2-1.9-.3-3.8-.3-5.6 0-23.9 15.5-43.4 34.6-43.4 10.7 0 20.8 6.2 27.3 16.8 4-2.7 8.6-4.1 13.3-4.1 14.8 0 26.8 13.8 26.8 30.7 0 1.9-.2 3.9-.5 5.8-.2 1.1-1.1 1.9-2.3 1.9zm-94.4-4.7h92.3c.1-1 .2-2 .2-3 0-14.3-9.9-26-22.1-26-4.5 0-8.9 1.6-12.6 4.6-.5.4-1.3.6-1.9.5-.7-.1-1.3-.6-1.6-1.2-5.6-10.4-14.8-16.6-24.5-16.6-16.5 0-29.9 17.4-29.9 38.7 0 .9 0 1.9.1 3z"/><path d="m148.2 312.8c-1 0-1.9-.7-2.3-1.7-3.6-11.8-9.7-20-18.3-24.3-13.5-6.8-28.4-1.8-28.6-1.7-1 .3-2 0-2.6-.8-14.8-19.4-40.7-5.3-41-5.2-1.1.6-2.6.2-3.2-.9s-.2-2.6.9-3.2c.3-.2 28.6-15.6 46 5.2 4.6-1.2 18-4 30.7 2.5 9.7 4.9 16.6 14.1 20.6 27.1.4 1.2-.3 2.6-1.6 2.9-.1 0-.3.1-.6.1z"/><path d="m266.9 183.6h-22.3c-19.5 0-35.3-15.9-35.3-35.3s15.9-35.3 35.3-35.3c1.3 0 2.4 1.1 2.4 2.4s-1.1 2.4-2.4 2.4c-16.9 0-30.6 13.7-30.6 30.6s13.7 30.6 30.6 30.6h22.3c16.9 0 30.6-13.7 30.6-30.6s-13.7-30.6-30.6-30.6c-1.3 0-2.4-1.1-2.4-2.4s1.1-2.4 2.4-2.4c19.5 0 35.3 15.9 35.3 35.3s-15.8 35.3-35.3 35.3z"/><path d="m199.6 169c-.8 0-1.6-.4-2.1-1.2-.1-.3-14.5-26.6 5.7-47.4.9-.9 2.4-1 3.3-.1s1 2.4.1 3.3c-17.7 18.3-5.5 40.9-4.9 41.8.6 1.1.2 2.6-.9 3.2-.4.3-.8.4-1.2.4z"/><path d="m611.3 540.4h-407.6c-1.3 0-2.4-1.1-2.4-2.4s1.1-2.4 2.4-2.4h400.9l-7.3-5.7c-1-.8-1.2-2.3-.4-3.3s2.3-1.2 3.3-.4l12.6 9.9c.8.6 1.1 1.7.8 2.6-.4 1.1-1.3 1.7-2.3 1.7z"/><path d="m598.7 550.3c-.7 0-1.4-.3-1.9-.9-.8-1-.6-2.5.4-3.3l7.3-5.7h-400.8c-1.3 0-2.4-1.1-2.4-2.4s1.1-2.4 2.4-2.4h407.7c1 0 1.9.6 2.2 1.6.3.9 0 2-.8 2.6l-12.6 9.9c-.4.5-1 .6-1.5.6z"/><path d="m575.4 319.2h18.6v218.9h-18.6z" fill="#25ce9e"/><path d="m594 540.4h-18.6c-1.3 0-2.4-1.1-2.4-2.4v-218.8c0-1.3 1.1-2.4 2.4-2.4h18.6c1.3 0 2.4 1.1 2.4 2.4v218.9c-.1 1.3-1.1 2.3-2.4 2.3zm-16.3-4.7h13.9v-214.2h-13.9z"/><path d="m556.8 332.1h18.6v206h-18.6z" fill="#25ce9e"/><path d="m575.4 540.4h-18.6c-1.3 0-2.4-1.1-2.4-2.4v-206c0-1.3 1.1-2.4 2.4-2.4h18.6c1.3 0 2.4 1.1 2.4 2.4v206c-.1 1.4-1.1 2.4-2.4 2.4zm-16.2-4.7h13.8v-201.3h-13.9v201.3z"/><path d="m538.2 350.7h18.6v187.4h-18.6z" fill="#25ce9e"/><path d="m556.8 540.4h-18.6c-1.3 0-2.4-1.1-2.4-2.4v-187.3c0-1.3 1.1-2.4 2.4-2.4h18.6c1.3 0 2.4 1.1 2.4 2.4v187.4c0 1.3-1.1 2.3-2.4 2.3zm-16.2-4.7h13.9v-182.7h-13.9z"/><path d="m519.6 360.9h18.6v177.2h-18.6z" fill="#25ce9e"/><path d="m538.2 540.4h-18.6c-1.3 0-2.4-1.1-2.4-2.4v-177.1c0-1.3 1.1-2.4 2.4-2.4h18.6c1.3 0 2.4 1.1 2.4 2.4v177.2c0 1.3-1.1 2.3-2.4 2.3zm-16.2-4.7h13.9v-172.5h-13.9z"/><path d="m501 423.5h18.6v114.6h-18.6z" fill="#4088da"/><path d="m519.6 540.4h-18.6c-1.3 0-2.4-1.1-2.4-2.4v-114.5c0-1.3 1.1-2.4 2.4-2.4h18.6c1.3 0 2.4 1.1 2.4 2.4v114.6c0 1.3-1.1 2.3-2.4 2.3zm-16.2-4.7h13.9v-109.9h-13.9z"/><path d="m501 540.4h-18.6c-1.3 0-2.4-1.1-2.4-2.4v-163.5c0-1.3 1.1-2.4 2.4-2.4h18.6c1.3 0 2.4 1.1 2.4 2.4v163.6c0 1.3-1.1 2.3-2.4 2.3zm-16.2-4.7h13.9v-158.8h-13.9z"/><path d="m463.9 428.6h18.6v109.5h-18.6z" fill="#4088da"/><path d="m482.5 540.4h-18.6c-1.3 0-2.4-1.1-2.4-2.4v-109.4c0-1.3 1.1-2.4 2.4-2.4h18.6c1.3 0 2.4 1.1 2.4 2.4v109.5c-.1 1.3-1.1 2.3-2.4 2.3zm-16.3-4.7h13.9v-104.7h-13.9z"/><path d="m463.9 540.4h-18.6c-1.3 0-2.4-1.1-2.4-2.4v-133.4c0-1.3 1.1-2.4 2.4-2.4h18.6c1.3 0 2.4 1.1 2.4 2.4v133.5c-.1 1.3-1.1 2.3-2.4 2.3zm-16.3-4.7h13.9v-128.8h-13.9z"/><path d="m445.3 540.4h-18.6c-1.3 0-2.4-1.1-2.4-2.4v-117c0-1.3 1.1-2.4 2.4-2.4h18.6c1.3 0 2.4 1.1 2.4 2.4v117.1c-.1 1.3-1.1 2.3-2.4 2.3zm-16.2-4.7h13.9v-112.4h-13.9z"/><path d="m408.1 451.3h18.6v86.7h-18.6z" fill="#4088da"/><path d="m426.7 540.4h-18.6c-1.3 0-2.4-1.1-2.4-2.4v-86.7c0-1.3 1.1-2.4 2.4-2.4h18.6c1.3 0 2.4 1.1 2.4 2.4v86.7c0 1.4-1.1 2.4-2.4 2.4zm-16.2-4.7h13.9v-82h-13.9z"/><path d="m389.5 486h18.6v52h-18.6z" fill="#fabf62"/><path d="m408.1 540.4h-18.6c-1.3 0-2.4-1.1-2.4-2.4v-52c0-1.3 1.1-2.4 2.4-2.4h18.6c1.3 0 2.4 1.1 2.4 2.4v52c0 1.4-1.1 2.4-2.4 2.4zm-16.2-4.7h13.9v-47.3h-13.9z"/><path d="m389.5 540.4h-18.6c-1.3 0-2.4-1.1-2.4-2.4v-81.5c0-1.3 1.1-2.4 2.4-2.4h18.6c1.3 0 2.4 1.1 2.4 2.4v81.5c0 1.4-1.1 2.4-2.4 2.4zm-16.2-4.7h13.9v-76.7h-13.9z"/><path d="m352.4 505.6h18.6v32.5h-18.6z" fill="#fabf62"/><path d="m370.9 540.4h-18.6c-1.3 0-2.4-1.1-2.4-2.4v-32.5c0-1.3 1.1-2.4 2.4-2.4h18.6c1.3 0 2.4 1.1 2.4 2.4v32.5c0 1.4-1.1 2.4-2.4 2.4zm-16.2-4.7h13.9v-27.8h-13.9z"/><path d="m333.8 522.6h18.6v15.5h-18.6z" fill="#fabf62"/><path d="m352.4 540.4h-18.6c-1.3 0-2.4-1.1-2.4-2.4v-15.5c0-1.3 1.1-2.4 2.4-2.4h18.6c1.3 0 2.4 1.1 2.4 2.4v15.5c-.1 1.4-1.1 2.4-2.4 2.4zm-16.3-4.7h13.9v-10.8h-13.9z"/><path d="m296.6 513.6h18.6v24.5h-18.6z" fill="#fabf62"/><path d="m315.2 540.4h-18.6c-1.3 0-2.4-1.1-2.4-2.4v-24.5c0-1.3 1.1-2.4 2.4-2.4h18.6c1.3 0 2.4 1.1 2.4 2.4v24.5c-.1 1.4-1.1 2.4-2.4 2.4zm-16.2-4.7h13.9v-19.7h-13.9z"/><path d="m259.4 519.2h18.6v18.9h-18.6z" fill="#fabf62"/><path d="m278 540.4h-18.6c-1.3 0-2.4-1.1-2.4-2.4v-18.9c0-1.3 1.1-2.4 2.4-2.4h18.6c1.3 0 2.4 1.1 2.4 2.4v18.9c0 1.4-1.1 2.4-2.4 2.4zm-16.2-4.7h13.9v-14.2h-13.9z"/><path d="m240.8 500.3h18.6v37.8h-18.6z" fill="#fabf62"/><path d="m259.4 540.4h-18.6c-1.3 0-2.4-1.1-2.4-2.4v-37.8c0-1.3 1.1-2.4 2.4-2.4h18.6c1.3 0 2.4 1.1 2.4 2.4v37.8c0 1.4-1.1 2.4-2.4 2.4zm-16.2-4.7h13.9v-33.1h-13.9z"/><path d="m240.8 540.4h-18.6c-1.3 0-2.4-1.1-2.4-2.4v-53.9c0-1.3 1.1-2.4 2.4-2.4h18.6c1.3 0 2.4 1.1 2.4 2.4v53.9c0 1.4-1.1 2.4-2.4 2.4zm-16.2-4.7h13.9v-49.2h-13.9z"/><path d="m203.7 513.6h18.6v24.5h-18.6z" fill="#fabf62"/><path d="m222.3 540.4h-18.6c-1.3 0-2.4-1.1-2.4-2.4v-24.5c0-1.3 1.1-2.4 2.4-2.4h18.6c1.3 0 2.4 1.1 2.4 2.4v24.5c-.1 1.4-1.1 2.4-2.4 2.4zm-16.3-4.7h13.9v-19.7h-13.9z"/><path d="m420.5 338.7c-4.7 0-8.6-3.9-8.6-8.6s3.9-8.6 8.6-8.6 8.6 3.9 8.6 8.6-3.9 8.6-8.6 8.6zm0-12.5c-2.1 0-3.9 1.7-3.9 3.9 0 2.1 1.7 3.9 3.9 3.9 2.1 0 3.9-1.7 3.9-3.9-.1-2.2-1.8-3.9-3.9-3.9z"/><path d="m367.9 422c-4.7 0-8.6-3.9-8.6-8.6s3.9-8.6 8.6-8.6 8.6 3.9 8.6 8.6-3.9 8.6-8.6 8.6zm0-12.5c-2.1 0-3.9 1.7-3.9 3.9 0 2.1 1.7 3.9 3.9 3.9 2.1 0 3.9-1.7 3.9-3.9s-1.8-3.9-3.9-3.9z"/><path d="m442.2 366.9c-4.7 0-8.6-3.9-8.6-8.6s3.9-8.6 8.6-8.6 8.6 3.9 8.6 8.6-3.8 8.6-8.6 8.6zm0-12.5c-2.1 0-3.9 1.7-3.9 3.9 0 2.1 1.7 3.9 3.9 3.9 2.1 0 3.9-1.7 3.9-3.9 0-2.1-1.7-3.9-3.9-3.9z"/><path d="m488.7 349.8c-4.7 0-8.6-3.9-8.6-8.6s3.9-8.6 8.6-8.6 8.6 3.9 8.6 8.6c0 4.8-3.8 8.6-8.6 8.6zm0-12.5c-2.1 0-3.9 1.7-3.9 3.9 0 2.1 1.7 3.9 3.9 3.9 2.1 0 3.9-1.7 3.9-3.9 0-2.1-1.7-3.9-3.9-3.9z"/><path d="m512.3 299.4c-4.7 0-8.6-3.9-8.6-8.6s3.9-8.6 8.6-8.6 8.6 3.9 8.6 8.6-3.9 8.6-8.6 8.6zm0-12.5c-2.1 0-3.9 1.7-3.9 3.9 0 2.1 1.7 3.9 3.9 3.9 2.1 0 3.9-1.7 3.9-3.9s-1.8-3.9-3.9-3.9z"/><path d="m544.5 307.9c-4.7 0-8.6-3.9-8.6-8.6s3.9-8.6 8.6-8.6 8.6 3.9 8.6 8.6-3.9 8.6-8.6 8.6zm0-12.5c-2.1 0-3.9 1.7-3.9 3.9 0 2.1 1.7 3.9 3.9 3.9s3.9-1.7 3.9-3.9-1.8-3.9-3.9-3.9z"/><path d="m575.4 286.9c-4.7 0-8.6-3.9-8.6-8.6s3.9-8.6 8.6-8.6 8.6 3.9 8.6 8.6-3.9 8.6-8.6 8.6zm0-12.5c-2.1 0-3.9 1.7-3.9 3.9 0 2.1 1.7 3.9 3.9 3.9 2.1 0 3.9-1.7 3.9-3.9s-1.8-3.9-3.9-3.9z"/><path d="m437.2 357c-.8 0-1.5-.4-2-1.1l-12.8-19.7c-.7-1.1-.4-2.5.7-3.3 1.1-.7 2.5-.4 3.3.7l12.8 19.7c.7 1.1.4 2.5-.7 3.3-.4.3-.9.4-1.3.4z"/><path d="m448.5 360.7c-.9 0-1.8-.5-2.2-1.4-.5-1.2 0-2.6 1.2-3.1l34.5-14.6c1.2-.5 2.6 0 3.1 1.2s0 2.6-1.2 3.1l-34.5 14.6c-.3.1-.6.2-.9.2z"/><path d="m492.6 338.7c-.3 0-.6-.1-.9-.2-1.2-.5-1.8-1.9-1.3-3.1l16.3-39.3c.5-1.2 1.9-1.8 3.1-1.3s1.8 1.9 1.3 3.1l-16.3 39.3c-.4.9-1.3 1.5-2.2 1.5z"/><path d="m539.1 298.4c-.2 0-.3 0-.5-.1l-20.6-4.6c-1.3-.3-2.1-1.5-1.8-2.8s1.5-2.1 2.8-1.8l20.6 4.6c1.3.3 2.1 1.5 1.8 2.8-.2 1.1-1.2 1.9-2.3 1.9z"/><path d="m546.8 295.8c-.8 0-1.6-.4-2-1.2-.7-1.1-.3-2.6.9-3.2l22.4-12.9c1.1-.7 2.6-.3 3.2.9.7 1.1.3 2.6-.9 3.2l-22.4 12.9c-.4.2-.8.3-1.2.3z"/><path d="m370.9 410.3c-.4 0-.9-.1-1.2-.4-1.1-.7-1.4-2.1-.7-3.2l45.6-73c.7-1.1 2.1-1.4 3.2-.7s1.4 2.1.7 3.2l-45.6 73c-.4.7-1.2 1.1-2 1.1z"/><path d="m385.4 412.4c-.4 0-.9-.1-1.3-.4-1.1-.7-1.4-2.2-.7-3.2l31.2-49.2c.7-1.1 2.1-1.4 3.2-.7s1.4 2.2.7 3.2l-31.2 49.2c-.4.7-1.1 1.1-1.9 1.1z"/><path d="m390.4 334.4c-1.3 0-2.4-1.1-2.4-2.4v-138.4c0-15.2 12.4-27.5 27.5-27.5h116.1c15.2 0 27.5 12.4 27.5 27.5v78.4c0 1.3-1.1 2.4-2.4 2.4s-2.4-1.1-2.4-2.4v-78.4c0-12.6-10.2-22.8-22.8-22.8h-115.9c-12.6 0-22.8 10.2-22.8 22.8v138.5c-.1 1.3-1.1 2.3-2.4 2.3z"/><path d="m405.3 305.6c-1.3 0-2.4-1.1-2.4-2.4v-102.6c0-10.6 8.6-19.2 19.2-19.2h102.9c10.6 0 19.2 8.6 19.2 19.2v64.3c0 1.3-1.1 2.4-2.4 2.4s-2.4-1.1-2.4-2.4v-64.3c0-8-6.5-14.5-14.5-14.5h-102.7c-8 0-14.5 6.5-14.5 14.5v102.7c-.1 1.3-1.1 2.3-2.4 2.3z"/><path d="m517.5 201.8h12.1v12.1h-12.1z" fill="#4088da"/><path d="m529.5 216.3h-12.1c-1.3 0-2.4-1.1-2.4-2.4v-12.1c0-1.3 1.1-2.4 2.4-2.4h12.1c1.3 0 2.4 1.1 2.4 2.4v12.1c0 1.3-1.1 2.4-2.4 2.4zm-9.7-4.7h7.4v-7.4h-7.4z"/><path d="m470.5 201.8h12.1v12.1h-12.1z" fill="#4088da"/><path d="m482.6 216.3h-12.1c-1.3 0-2.4-1.1-2.4-2.4v-12.1c0-1.3 1.1-2.4 2.4-2.4h12.1c1.3 0 2.4 1.1 2.4 2.4v12.1c0 1.3-1.1 2.4-2.4 2.4zm-9.7-4.7h7.4v-7.4h-7.4z"/><path d="m494.7 218.2h12.1v12.1h-12.1z" fill="#4088da"/><path d="m506.8 232.7h-12.1c-1.3 0-2.4-1.1-2.4-2.4v-12.1c0-1.3 1.1-2.4 2.4-2.4h12.1c1.3 0 2.4 1.1 2.4 2.4v12.1c0 1.3-1.1 2.4-2.4 2.4zm-9.7-4.7h7.4v-7.4h-7.4z"/><path d="m418.8 218.2h12.1v12.1h-12.1z" fill="#4088da"/><path d="m430.9 232.7h-12.1c-1.3 0-2.4-1.1-2.4-2.4v-12.1c0-1.3 1.1-2.4 2.4-2.4h12.1c1.3 0 2.4 1.1 2.4 2.4v12.1c-.1 1.3-1.1 2.4-2.4 2.4zm-9.7-4.7h7.4v-7.4h-7.4z"/><path d="m454.3 230.3h12.1v12.1h-12.1z" fill="#4088da"/><path d="m466.4 244.8h-12.1c-1.3 0-2.4-1.1-2.4-2.4v-12.1c0-1.3 1.1-2.4 2.4-2.4h12.1c1.3 0 2.4 1.1 2.4 2.4v12.1c-.1 1.3-1.1 2.4-2.4 2.4zm-9.8-4.8h7.4v-7.4h-7.4z"/><path d="m482.6 245.3h12.1v12.1h-12.1z" fill="#4088da"/><path d="m494.7 259.8h-12.1c-1.3 0-2.4-1.1-2.4-2.4v-12.1c0-1.3 1.1-2.4 2.4-2.4h12.1c1.3 0 2.4 1.1 2.4 2.4v12.1c0 1.3-1.1 2.4-2.4 2.4zm-9.7-4.7h7.4v-7.4h-7.4z"/><path d="m442.2 253.6h12.1v12.1h-12.1z" fill="#4088da"/><path d="m454.3 268h-12.1c-1.3 0-2.4-1.1-2.4-2.4v-12.1c0-1.3 1.1-2.4 2.4-2.4h12.1c1.3 0 2.4 1.1 2.4 2.4v12.1c-.1 1.3-1.1 2.4-2.4 2.4zm-9.8-4.7h7.4v-7.4h-7.4z"/><path d="m421.7 281.6h12.1v12.1h-12.1z" fill="#4088da"/><path d="m433.8 296.1h-12.1c-1.3 0-2.4-1.1-2.4-2.4v-12.1c0-1.3 1.1-2.4 2.4-2.4h12.1c1.3 0 2.4 1.1 2.4 2.4v12.1c0 1.3-1.1 2.4-2.4 2.4zm-9.7-4.7h7.4v-7.4h-7.4z"/><path d="m620.5 263.5c-12.1 0-22-9.9-22-22s9.9-22 22-22 22 9.9 22 22-9.9 22-22 22zm0-39.3c-9.5 0-17.3 7.8-17.3 17.3s7.8 17.3 17.3 17.3 17.3-7.8 17.3-17.3c0-9.6-7.8-17.3-17.3-17.3z"/><path d="m119.5 211.9c-8.2 0-14.9-6.7-14.9-14.9s6.7-14.9 14.9-14.9 14.9 6.7 14.9 14.9-6.7 14.9-14.9 14.9zm0-25c-5.6 0-10.2 4.6-10.2 10.2s4.6 10.2 10.2 10.2 10.2-4.6 10.2-10.2-4.6-10.2-10.2-10.2z"/><path d="m59.9 222.6c-13.1 0-23.7-10.6-23.7-23.7s10.6-23.7 23.7-23.7 23.7 10.6 23.7 23.7-10.7 23.7-23.7 23.7zm0-42.6c-10.5 0-19 8.5-19 19s8.5 19 19 19 19-8.5 19-19-8.5-19-19-19z"/><path d="m45.7 553.5c-13.1 0-23.7-10.6-23.7-23.7s10.6-23.7 23.7-23.7 23.7 10.6 23.7 23.7c-.1 13.1-10.7 23.7-23.7 23.7zm0-42.7c-10.5 0-19 8.5-19 19s8.5 19 19 19 19-8.5 19-19c-.1-10.4-8.6-19-19-19z"/><path d="m780.3 229.6c-1.3 0-2.4-1.1-2.4-2.4v-74.5l-11.5 18.2c-.7 1.1-2.1 1.4-3.2.7s-1.4-2.1-.7-3.2l15.9-25c.6-.9 1.6-1.3 2.6-1s1.7 1.2 1.7 2.3v82.7c0 1.1-1.1 2.2-2.4 2.2z"/><path d="m780.3 229.6c-1.3 0-2.4-1.1-2.4-2.4v-82.7c0-1 .7-2 1.7-2.3s2.1.1 2.6 1l15.8 25c.7 1.1.4 2.6-.7 3.2-1.1.7-2.6.4-3.2-.7l-11.5-18.2v74.5c.1 1.5-1 2.6-2.3 2.6z"/><path d="m470.5 170.8c-1.3 0-2.4-1.1-2.4-2.4v-44.4l-11.5 18.2c-.7 1.1-2.1 1.4-3.2.7s-1.4-2.1-.7-3.2l15.8-25c.6-.9 1.6-1.3 2.6-1s1.7 1.2 1.7 2.3v52.6c.1 1.1-1 2.2-2.3 2.2z"/><path d="m470.5 170.8c-1.3 0-2.4-1.1-2.4-2.4v-52.6c0-1 .7-2 1.7-2.3s2.1.1 2.6 1l15.8 25c.7 1.1.4 2.6-.7 3.2-1.1.7-2.6.4-3.2-.7l-11.4-18v44.4c0 1.3-1.1 2.4-2.4 2.4z"/><path d="m972.9 235.6c-1.3 0-2.4-1.1-2.4-2.4v-104.7l-16.5 20c-.8 1-2.3 1.1-3.3.3s-1.1-2.3-.3-3.3l20.7-25c.6-.8 1.7-1.1 2.6-.7.9.3 1.6 1.2 1.6 2.2v111.3c-.1 1.3-1.1 2.3-2.4 2.3z"/><path d="m972.9 235.6c-1.3 0-2.4-1.1-2.4-2.4v-111.3c0-1 .6-1.9 1.6-2.2.9-.3 2-.1 2.6.7l20.7 25c.8 1 .7 2.5-.3 3.3s-2.5.7-3.3-.3l-16.5-20v104.8c-.1 1.4-1.1 2.4-2.4 2.4z"/><path d="m1026.1 262.1c-1.3 0-2.4-1.1-2.4-2.4v-61.6l-8.5 10.3c-.8 1-2.3 1.1-3.3.3s-1.1-2.3-.3-3.3l12.7-15.3c.6-.8 1.7-1.1 2.6-.7.9.3 1.6 1.2 1.6 2.2v68.2c0 1.2-1.1 2.3-2.4 2.3z"/><path d="m1026.1 262.1c-1.3 0-2.4-1.1-2.4-2.4v-68.2c0-1 .6-1.9 1.6-2.2.9-.3 2 0 2.6.7l12.7 15.3c.8 1 .7 2.5-.3 3.3s-2.5.7-3.3-.3l-8.5-10.3v61.6c0 1.4-1.1 2.5-2.4 2.5z"/><path d="m227.8 163.3h55.8v35.9h-55.8z" fill="#2b71b5"/><path d="m273.3 192.9c-1.3 0-2.4-1.1-2.4-2.4v-20.3c0-1.3 1.1-2.4 2.4-2.4s2.4 1.1 2.4 2.4v20.3c0 1.3-1.1 2.4-2.4 2.4zm-11.7 0c-1.3 0-2.4-1.1-2.4-2.4v-20.3c0-1.3 1.1-2.4 2.4-2.4s2.4 1.1 2.4 2.4v20.3c-.1 1.3-1.1 2.4-2.4 2.4zm-11.8 0c-1.3 0-2.4-1.1-2.4-2.4v-20.3c0-1.3 1.1-2.4 2.4-2.4s2.4 1.1 2.4 2.4v20.3c0 1.3-1.1 2.4-2.4 2.4zm-11.7 0c-1.3 0-2.4-1.1-2.4-2.4v-20.3c0-1.3 1.1-2.4 2.4-2.4s2.4 1.1 2.4 2.4v20.3c-.1 1.3-1.1 2.4-2.4 2.4z" fill="#fff"/><path d="m861.2 177.4h-12.3c-16.6 0-30-13.5-30-30v-18.5h-.8c-6 0-10.9-4.9-10.9-10.9v-21.3c0-6 4.9-10.9 10.9-10.9h3.2c1.3 0 2.4 1.1 2.4 2.4s-1.1 2.4-2.4 2.4h-3.2c-3.4 0-6.2 2.8-6.2 6.2v21.3c0 3.4 2.8 6.2 6.2 6.2h3.2c1.3 0 2.4 1.1 2.4 2.4v20.9c0 14 11.4 25.3 25.3 25.3h12.3c1.3 0 2.4 1.1 2.4 2.4-.2 1-1.2 2.1-2.5 2.1z"/><path d="m890.5 177.4c-1.3 0-2.4-1.1-2.4-2.4s1.1-2.4 2.4-2.4c14 0 25.3-11.4 25.3-25.3v-20.9c0-1.3 1.1-2.4 2.4-2.4h3.4c3.4 0 6.2-2.8 6.2-6.2v-16.8c0-1.3 1.1-2.4 2.4-2.4s2.4 1.1 2.4 2.4v16.9c0 6-4.9 10.9-10.9 10.9h-1.1v18.5c0 16.6-13.5 30.1-30.1 30.1z"/><path d="m870.6 137.4c-.4 0-.8-.1-1.2-.3l-9.7-5.9c-.5-.3-.9-.9-1.1-1.5-.1-.6 0-1.3.3-1.8 0-.1 4-6.2 6.6-13.5 2.6-7 1.8-15.5 1.8-15.5-.1-1.3.8-2.4 2.1-2.6 1.3-.1 2.4.8 2.6 2.1 0 .4.8 9.6-2.1 17.6-1.9 5.2-4.4 9.8-5.9 12.3l7.7 4.7c1.1.7 1.5 2.1.8 3.2-.3.8-1.1 1.2-1.9 1.2z"/><path d="m825.7 81c-.9-.4-1.6-1.3-1.5-2.4.1-1.3 1.2-2.3 2.5-2.2l20.6 1.7c1.3.1 2.3 1.2 2.2 2.5s-1.2 2.3-2.5 2.2l-20.6-1.7c-.3 0-.5 0-.7-.1z"/><path d="m870.6 164.7c-12.3 0-22.3-7.3-22.3-16.2 0-1.3 1.1-2.4 2.4-2.4h39.9c1.3 0 2.4 1.1 2.4 2.4-.1 8.9-10.1 16.2-22.4 16.2zm-17.2-13.9c1.7 5.1 8.9 9.1 17.2 9.1s15.5-4 17.2-9.1z"/><path d="m941.8 105.2c-.1 0-.2 0-.2 0-41.5-4.4-120.9-77.3-124.2-80.4-.5-.4-.7-1-.8-1.7 0-.6.2-1.3.7-1.7 27.2-27.9 69.8-28.7 108.6-2 17.1 11.8 25.7 30.1 24.8 53.1-.7 17.1-6.3 30.6-6.6 31.2-.5.9-1.3 1.5-2.3 1.5zm-119.4-82.2c12.1 10.9 80.9 71.6 117.9 77.3 1.5-4 5.1-15.1 5.6-28 .8-21.5-6.8-38-22.7-48.9-36-24.8-75.2-24.8-100.8-.4z"/><path d="m821.1 90.4c-1.3 0-2.4-1.1-2.4-2.4.4-32.6 19.5-47.8 20.3-48.4 1-.8 2.5-.6 3.3.4s.6 2.5-.4 3.3c-.2.2-18.1 14.6-18.5 44.8.1 1.3-1 2.3-2.3 2.3z"/><path d="m809.4 109.2c-.5 0-1.1-.2-1.5-.5-11.3-9.3-17.2-20.5-17.6-33.1-.8-28 25.9-53.2 27.1-54.2 1-.9 2.4-.8 3.3.1.9 1 .8 2.4-.1 3.3-.3.2-26.3 24.8-25.6 50.7.3 11.2 5.7 21.1 15.9 29.6 1 .8 1.1 2.3.3 3.3-.5.5-1.2.8-1.8.8z"/><path d="m669.1 164.3s.5-8.5.8-15.8c-.3 0-.5 0-.8 0-8.7 0-15.8 7.1-15.8 15.8s7.1 15.8 15.8 15.8c8.4 0 15.3-6.6 15.8-14.9z" fill="#2b71b5"/><path d="m669.1 182.5c-10 0-18.2-8.1-18.2-18.2 0-10 8.1-18.2 18.2-18.2h.7.2c1.3.1 2.3 1.2 2.2 2.5-.2 4.9-.5 10.4-.7 13.4l13.4.7c1.3.1 2.3 1.2 2.2 2.5-.4 9.8-8.4 17.3-18 17.3zm-1.7-31.5c-6.6.8-11.8 6.5-11.8 13.3 0 7.4 6 13.4 13.4 13.4 6.3 0 11.7-4.4 13.1-10.4l-13.2-.7c-.6 0-1.2-.3-1.6-.8s-.6-1.1-.6-1.7c0 0 .4-6.6.7-13.1z"/><path d="m667.9 201c-39.3 0-67.7-34.2-68.9-35.7-.7-.9-.7-2.1 0-3 1.3-1.6 31.6-38.1 73-35.6 41.2 2.5 68.1 34.2 69.2 35.5.7.9.7 2.1 0 3-1.1 1.3-28 33-69.2 35.5-1.4.3-2.8.3-4.1.3zm-64-37.1c6.2 6.8 33.4 34.4 67.8 32.3 34.1-2.1 58.6-26 64.5-32.3-5.9-6.3-30.4-30.3-64.5-32.3-34.4-2.1-61.6 25.5-67.8 32.3z"/><path d="m587.4 153.8c-.4 0-.9-.1-1.3-.4-1.1-.7-1.4-2.2-.7-3.3.3-.5 8.2-12.3 24.3-23 14.8-9.9 39.7-20.5 73.8-15.2 1.3.2 2.2 1.4 2 2.7s-1.4 2.2-2.7 2c-62.4-9.8-93.2 35.7-93.5 36.1-.4.8-1.2 1.1-1.9 1.1z"/><path d="m670.9 220.7c-2.6 0-4.3-.1-4.6-.1-1.3-.1-2.3-1.2-2.2-2.5s1.2-2.3 2.5-2.2c.4 0 40.6 2.6 64.6-22.3.9-.9 2.4-1 3.3-.1s1 2.4.1 3.3c-20.8 21.7-52 23.9-63.7 23.9z"/><path d="m1117.6 166.9c-9.4 0-17.1-7.7-17.1-17.1s7.7-17.1 17.1-17.1 17.1 7.7 17.1 17.1-7.6 17.1-17.1 17.1zm0-29.5c-6.8 0-12.4 5.5-12.4 12.4 0 6.8 5.5 12.4 12.4 12.4s12.4-5.5 12.4-12.4c0-6.8-5.5-12.4-12.4-12.4z"/><path d="m1087.1 191c-5.1 0-9.2-4.1-9.2-9.2s4.1-9.2 9.2-9.2 9.2 4.1 9.2 9.2-4.1 9.2-9.2 9.2zm0-13.6c-2.5 0-4.5 2-4.5 4.5s2 4.5 4.5 4.5 4.5-2 4.5-4.5-2-4.5-4.5-4.5z"/><path d="m1130.5 198.4c-6.4 0-11.6-5.2-11.6-11.6s5.2-11.6 11.6-11.6 11.6 5.2 11.6 11.6-5.2 11.6-11.6 11.6zm0-18.5c-3.8 0-6.9 3.1-6.9 6.9s3.1 6.9 6.9 6.9 6.9-3.1 6.9-6.9-3.1-6.9-6.9-6.9z"/><path d="m1123.8 238.9c-1.2 0-2.2-.8-2.3-2-.2-1.3.7-2.5 2-2.7 25.5-3.7 47.2-21.9 55.4-46.3.4-1.2 1.7-1.9 3-1.5 1.2.4 1.9 1.7 1.5 3-8.7 26.1-31.9 45.5-59.1 49.5-.3 0-.4 0-.5 0z"/><path d="m1044.1 152.1c-.2 0-.4 0-.5-.1-1.3-.3-2.1-1.6-1.8-2.8 4.7-19.9 17.6-37.1 35.4-47.3 1.1-.6 2.6-.2 3.2.9s.2 2.6-.9 3.2c-16.7 9.5-28.8 25.6-33.2 44.2-.2 1.2-1.2 1.9-2.2 1.9z"/><path d="m849.7 245.8c-.5 0-1-.2-1.4-.5-1.1-.8-26.6-20-26.6-34.5 0-7.7 3.6-17.2 20.6-18.5h.4c1.4-.1 2.7.1 3.8.5v-17.8c0-1.3 1.1-2.4 2.4-2.4s2.4 1.1 2.4 2.4v21.7c4.6 8.3 13.6 20.9 19.4 20.9.9 0 1.8.5 2.1 1.4.4.8.2 1.8-.4 2.5l-20.9 23.5c-.5.6-1.2.8-1.8.8zm-6.3-48.8c-.1 0-.2 0-.4 0h-.4c-7 .5-16.3 2.6-16.3 13.8 0 9.3 15.3 23.3 23 29.4l16.9-19c-9.1-4.2-17.9-19.8-19.4-22.6-.3-.3-1.5-1.6-3.4-1.6z"/><path d="m712.6 274.4c-1.3 0-2.4-1.1-2.4-2.4v-1c0-10.1 6.1-19.2 15.5-23l97.4-39.3c1.2-.5 2.6.1 3.1 1.3s-.1 2.6-1.3 3.1l-97.4 39.3c-7.6 3.1-12.5 10.4-12.5 18.6v1c0 1.3-1.1 2.4-2.4 2.4z"/><path d="m891.5 245.8c-.7 0-1.3-.3-1.8-.8l-20.9-23.5c-.6-.7-.8-1.7-.4-2.5s1.2-1.4 2.1-1.4c5.8 0 14.9-12.6 19.4-20.9v-21.7c0-1.3 1.1-2.4 2.4-2.4s2.4 1.1 2.4 2.4v17.8c1.1-.4 2.4-.6 3.8-.5h.4c17 1.3 20.6 10.8 20.6 18.5 0 14.5-25.5 33.7-26.6 34.5-.4.4-.9.5-1.4.5zm-16.6-24.5 16.9 19c7.7-6.1 23-20.1 23-29.4 0-11.2-9.3-13.3-16.3-13.8h-.4c-2.1-.2-3.5 1.2-3.8 1.6-1.5 2.7-10.3 18.3-19.4 22.6z"/><path d="m1028.6 274.4c-1.3 0-2.4-1.1-2.4-2.4v-1c0-8.2-4.9-15.5-12.5-18.6l-97.4-39.3c-1.2-.5-1.8-1.9-1.3-3.1s1.9-1.8 3.1-1.3l97.4 39.3c9.4 3.8 15.5 12.8 15.5 23v1c-.1 1.3-1.1 2.4-2.4 2.4z"/><path d="m1097.4 406.3c-1.3 0-2.4-1.1-2.4-2.4v-103.8c0-14.2-11.5-25.7-25.7-25.7h-397.4c-14.2 0-25.7 11.5-25.7 25.7v103.1c0 1.3-1.1 2.4-2.4 2.4s-2.4-1.1-2.4-2.4v-103.1c0-16.8 13.6-30.4 30.4-30.4h397.4c16.8 0 30.4 13.6 30.4 30.4v103.8c.1 1.3-.9 2.4-2.2 2.4z"/><path d="m643.9 456.9c-1.3 0-2.4 1.1-2.4 2.4v113.3h4.7v-113.4c0-1.3-1-2.3-2.3-2.3z"/><path d="m1097.4 457.2c-1.3 0-2.4 1.1-2.4 2.4v112.9h4.7v-112.9c0-1.3-1-2.4-2.3-2.4z"/><path d="m1097.4 307.9h-453.5c-1.3 0-2.4-1.1-2.4-2.4s1.1-2.4 2.4-2.4h453.5c1.3 0 2.4 1.1 2.4 2.4-.1 1.3-1.1 2.4-2.4 2.4z"/><circle cx="666.7" cy="289.6" fill="#fabf62" r="6.8"/><path d="m666.7 298.8c-5.1 0-9.2-4.1-9.2-9.2s4.1-9.2 9.2-9.2 9.2 4.1 9.2 9.2c-.1 5.1-4.2 9.2-9.2 9.2zm0-13.6c-2.5 0-4.5 2-4.5 4.5s2 4.5 4.5 4.5 4.5-2 4.5-4.5c-.1-2.5-2.1-4.5-4.5-4.5z"/><path d="m691.4 298.8c-5.1 0-9.2-4.1-9.2-9.2s4.1-9.2 9.2-9.2 9.2 4.1 9.2 9.2c-.1 5.1-4.2 9.2-9.2 9.2zm0-13.6c-2.5 0-4.5 2-4.5 4.5s2 4.5 4.5 4.5 4.5-2 4.5-4.5c-.1-2.5-2.1-4.5-4.5-4.5z"/><path d="m716.1 298.8c-5.1 0-9.2-4.1-9.2-9.2s4.1-9.2 9.2-9.2 9.2 4.1 9.2 9.2c-.1 5.1-4.2 9.2-9.2 9.2zm0-13.6c-2.5 0-4.5 2-4.5 4.5s2 4.5 4.5 4.5 4.5-2 4.5-4.5c-.1-2.5-2.1-4.5-4.5-4.5z"/><path d="m870.6 273.1c-1.3 0-2.4-1.1-2.4-2.4v-50.8c0-1.3 1.1-2.4 2.4-2.4s2.4 1.1 2.4 2.4v50.8c0 1.3-1.1 2.4-2.4 2.4z"/><path d="m741.9 262.1c-.9 0-1.8-.6-2.2-1.5-.5-1.2.1-2.6 1.3-3.1l49.7-19.7c1.2-.5 2.6.1 3.1 1.3s-.1 2.6-1.3 3.1l-49.7 19.7c-.3.2-.6.2-.9.2z"/><path d="m663.6 359.7h-19.7c-1.3 0-2.4-1.1-2.4-2.4v-22.1c0-.7.3-1.3.8-1.8.5-.4 1.2-.7 1.8-.6 12.4 1.4 21.8 11.9 21.8 24.4 0 1.5-1 2.5-2.3 2.5zm-17.4-4.7h14.9c-1-8.2-6.9-14.9-14.9-16.9z"/><path d="m826.2 355.2h-64.2c-1.2 0-2.2-.9-2.3-2.2-.1-1-.1-1.9-.1-2.8 0-14.2 8.7-25.7 19.5-25.7 6.7 0 12.9 4.6 16.5 12 3.5-2.3 7.5-3.5 11.7-3.5 11.1 0 20.5 8.6 21.4 19.7.1.7-.2 1.3-.6 1.8-.6.4-1.2.7-1.9.7zm-62-4.7h59.2c-1.8-7.4-8.5-12.8-16.3-12.8-4.1 0-8 1.5-11.1 4.2-.6.5-1.4.7-2.2.5s-1.4-.8-1.6-1.5c-2.5-7.2-7.7-11.8-13.2-11.8-8.2 0-14.8 9.4-14.8 21z"/><path d="m1067.7 336h-146.2c-1.3 0-2.4-1.1-2.4-2.4s1.1-2.4 2.4-2.4h146.2c1.3 0 2.4 1.1 2.4 2.4s-1.1 2.4-2.4 2.4z"/><path d="m1038.8 361.6h-88.3c-1.3 0-2.4-1.1-2.4-2.4s1.1-2.4 2.4-2.4h88.3c1.3 0 2.4 1.1 2.4 2.4-.1 1.3-1.1 2.4-2.4 2.4z"/><path d="m1052.6 348.8h-116c-1.3 0-2.4-1.1-2.4-2.4s1.1-2.4 2.4-2.4h116.1c1.3 0 2.4 1.1 2.4 2.4s-1.2 2.4-2.5 2.4z"/><path d="m870.6 445.3c-1.3 0-2.4 1.1-2.4 2.4v124.9h4.7v-125c.1-1.3-1-2.3-2.3-2.3z"/><path d="m847.7 468.6h-109c-1.3 0-2.4-1.1-2.4-2.4s1.1-2.4 2.4-2.4h109c1.3 0 2.4 1.1 2.4 2.4s-1.1 2.4-2.4 2.4z"/><path d="m847.7 488.8h-109c-1.3 0-2.4-1.1-2.4-2.4s1.1-2.4 2.4-2.4h109c1.3 0 2.4 1.1 2.4 2.4s-1.1 2.4-2.4 2.4z"/><path d="m802.9 509h-64.2c-1.3 0-2.4-1.1-2.4-2.4s1.1-2.4 2.4-2.4h64.2c1.3 0 2.4 1.1 2.4 2.4s-1.1 2.4-2.4 2.4z"/><path d="m646.8 460.2c-1.9 0-3.3-.1-3.9-.2-8-.1-14.5-6.6-14.5-14.6v-62.1c0-8.1 6.6-14.6 14.6-14.6 1.3 0 2.4 1.1 2.4 2.4s-1.1 2.4-2.4 2.4c-5.5 0-9.9 4.5-9.9 9.9v16.3h.8c.1 0 8.4 1.8 18.3 3.2 5.9.9 10.4 3.9 11.8 8.3.6 1.7.6 3.4.2 4.9 2.9 1 5.2 3.1 5.4 7.4.1 2.3-.6 4.4-2 5.9-.3.3-.6.6-1 .9 1 1.4 2.2 3.6 2 6.2-.2 2.7-1.8 5-4.6 6.9-1.2.8-2.8 1.4-4.5 1.9 1.2 1.5 2.1 3.4 2.1 6.1 0 2.3-.9 4.3-2.6 5.8-3.2 2.5-8.5 3-12.2 3zm-13.7-56v41.2c0 5.5 4.5 9.9 9.9 9.9h.3c3.5.4 10.1.2 12.5-2 .7-.6 1-1.3 1-2.3 0-4.8-5.1-5.1-5.7-5.1-.1 0-.2 0-.3 0-3.6.1-7.6-.1-11.5-.3-.7 0-1.4-.1-2-.1-1.3-.1-2.3-1.2-2.2-2.5s1.2-2.3 2.5-2.2c.6 0 1.3.1 2.1.1 5.7.3 17.6 1 21.7-1.7 1.6-1.1 2.4-2.2 2.5-3.3.1-1.7-1.2-3.4-1.8-3.9-.1-.1-.1-.1-.2-.2-.5.1-.9.1-1 .1h-25.4c-1.3 0-2.4-1.1-2.4-2.4s1.1-2.4 2.4-2.4h25.4c.6 0 2.4-.2 3.3-1.3.5-.6.8-1.3.7-2.4-.1-3.5-3-3.9-9.9-3.8-.8 0-1.6 0-2.3 0-5.7 0-17.1.2-17.2.2-1.3 0-2.3-1-2.4-2.3 0-1.3 1-2.4 2.3-2.4.1 0 11.5-.2 17.3-.2h2.2c1.4 0 3-.1 4.6 0 .3-.7.3-1.6 0-2.6-.9-2.6-3.9-4.5-8-5.1-9.3-1.1-17.2-2.7-18.4-3z"/><path d="m1095 460.2c-3.7 0-9.1-.5-12.2-3.3-1.7-1.5-2.6-3.5-2.6-5.8 0-2.6.8-4.6 2.1-6.1-1.7-.4-3.3-1-4.5-1.9-2.8-1.9-4.4-4.2-4.6-6.9-.2-2.6 1-4.8 2-6.2-.3-.3-.7-.5-1-.9-1.4-1.5-2.1-3.5-2-5.9.2-4.3 2.5-6.4 5.4-7.4-.4-1.5-.4-3.3.2-4.9 1.5-4.3 5.9-7.4 11.8-8.3 9.9-1.4 18.2-3.2 18.3-3.2.3-.1.6-.1.8 0v-16.3c0-5.5-4.5-9.9-9.9-9.9-1.3 0-2.4-1.1-2.4-2.4s1.1-2.4 2.4-2.4c8.1 0 14.6 6.6 14.6 14.6v62.1c0 8-6.5 14.6-14.5 14.6-.6.4-2.1.5-3.9.5zm-4.1-14.2c-.1 0-.2 0-.3 0-.9 0-5.7.5-5.7 5.1 0 1 .3 1.7 1 2.3 2.5 2.2 9 2.4 12.5 2h.3c5.5 0 9.9-4.5 9.9-9.9v-41.2c-1.2.2-9.1 1.9-18.4 3.2-4.1.6-7.2 2.5-8 5.1-.3.9-.3 1.9 0 2.6 1.6-.1 3.2-.1 4.6 0h2.2c5.7 0 17.2.2 17.3.2 1.3 0 2.3 1.1 2.3 2.4s-1.1 2.3-2.4 2.3c-.1 0-11.5-.2-17.2-.2-.7 0-1.5 0-2.3 0-6.9-.2-9.8.3-9.9 3.8 0 1.1.2 1.8.7 2.4 1 1 2.9 1.2 3.3 1.2h25.4c1.3 0 2.4 1.1 2.4 2.4s-1.1 2.4-2.4 2.4h-25.4c-.1 0-.5 0-1-.1-.1.1-.1.1-.2.2-.6.5-1.9 2.3-1.8 3.9.1 1.1 1 2.3 2.5 3.3 4.2 2.8 16 2.1 21.7 1.7.8 0 1.5-.1 2.1-.1 1.3 0 2.4.9 2.5 2.2s-.9 2.4-2.2 2.5c-.6 0-1.3.1-2 .1-3.9.1-7.9.3-11.5.2z"/><path d="m1086.4 446.7h-431.3c-1.3 0-2.4-1.1-2.4-2.4s1.1-2.4 2.4-2.4h431.3c1.3 0 2.4 1.1 2.4 2.4s-1.1 2.4-2.4 2.4z"/><path d="m339.9 357c-.5 0-1.1-.2-1.5-.6-1-.8-1.1-2.3-.3-3.3 16.7-19.6 25.9-44.5 25.9-70.3 0-13.3-2.4-26.2-7-38.5-.5-1.2.1-2.6 1.4-3 1.2-.5 2.6.1 3 1.4 4.9 12.8 7.3 26.3 7.3 40.2 0 26.9-9.6 52.9-27 73.4-.4.4-1.1.7-1.8.7z"/><path d="m310.2 501.3c-.9 0-1.7-.5-2.1-1.3-.6-1.2-.1-2.6 1.1-3.1 15.7-7.7 27.5-21.6 32.5-38.3.4-1.2 1.7-2 2.9-1.6s2 1.7 1.6 2.9c-5.3 17.9-18.1 33-35 41.2-.3.1-.7.2-1 .2z"/><path d="m218.5 428.6c-.2 0-.3 0-.5-.1-1.3-.3-2.1-1.5-1.8-2.8 3.9-17.4 14.9-32.8 30.1-42.2 1.1-.7 2.6-.3 3.2.8.7 1.1.4 2.6-.8 3.2-14.1 8.8-24.3 23.1-28 39.3-.2 1.1-1.1 1.8-2.2 1.8z"/><path d="m1306.9 324.2-68.6-.2c-.5 0-1.1-.2-1.5-.5-1.1-.9-27-22.6-26.9-63.7-1.9-36.5 14.8-66.4 29.2-85.1 15.6-20.2 31.4-31.5 32-32 .7-.5 1.7-.6 2.4-.2.3.2.6.4.8.7 3 2.2 17.3 13.3 31.5 31.6 14.4 18.7 31.2 48.5 29.2 85.1.1 41.1-25.8 62.8-26.9 63.7-.2.4-.7.6-1.2.6zm-67.7-4.9 66.8.2c3.9-3.5 24.7-24.2 24.6-59.6v-.1c3.3-61.9-49.2-105.3-58.1-112.1-4.3 3.3-17.2 13.9-29.7 30.1-13.9 18-30.1 46.8-28.2 81.9v.1c-.1 35.4 20.7 56 24.6 59.5z"/><path d="m1354.2 154.8c-.4 0-.8-.1-1.1-.3l-10.2-5.4-10.2 5.4c-.8.4-1.8.3-2.5-.2s-1.1-1.4-.9-2.3l1.9-11.4-8.3-8.1c-.6-.6-.9-1.6-.6-2.4.3-.9 1-1.5 1.9-1.6l11.4-1.7 5.1-10.3c.4-.8 1.2-1.3 2.1-1.3.9 0 1.7.5 2.1 1.3l5.1 10.3 11.4 1.7c.9.1 1.6.8 1.9 1.6.3.9 0 1.8-.6 2.4l-8.3 8.1 2 11.4c.2.9-.2 1.8-.9 2.3-.3.4-.8.5-1.3.5zm-24.5-22.2 5.7 5.6c.6.5.8 1.3.7 2.1l-1.4 7.9 7.1-3.7c.7-.4 1.5-.4 2.2 0l7.1 3.7-1.4-7.9c-.1-.8.1-1.5.7-2.1l5.7-5.6-7.9-1.1c-.8-.1-1.4-.6-1.8-1.3l-3.5-7.2-3.5 7.2c-.3.7-1 1.2-1.8 1.3z"/><path d="m1297.8 171.7h-51.2c-1.3 0-2.4-1.1-2.4-2.4s1.1-2.4 2.4-2.4h51.2c1.3 0 2.4 1.1 2.4 2.4s-1.1 2.4-2.4 2.4z"/><circle cx="1272.2" cy="204.1" fill="#2b71b5" r="12.5"/><path d="m1272.2 219c-8.2 0-14.9-6.7-14.9-14.9s6.7-14.9 14.9-14.9 14.9 6.7 14.9 14.9-6.7 14.9-14.9 14.9zm0-25.1c-5.6 0-10.2 4.6-10.2 10.2s4.6 10.2 10.2 10.2 10.2-4.6 10.2-10.2-4.6-10.2-10.2-10.2z"/><circle cx="1272.2" cy="258.1" fill="#2b71b5" r="24.8"/><path d="m1272.2 285.3c-15 0-27.2-12.2-27.2-27.2s12.2-27.2 27.2-27.2 27.2 12.2 27.2 27.2-12.2 27.2-27.2 27.2zm0-49.7c-12.4 0-22.5 10.1-22.5 22.5s10.1 22.5 22.5 22.5 22.5-10.1 22.5-22.5c-.1-12.4-10.1-22.5-22.5-22.5z"/><path d="m1272.2 274.1c-4.9 0-10-2.7-12.3-6.5-.7-1.1-.3-2.6.8-3.2 1.1-.7 2.6-.3 3.2.8 1.4 2.4 5 4.2 8.2 4.2 4.6 0 8.4-3.8 8.4-8.4 0-1.3 1.1-2.4 2.4-2.4s2.4 1.1 2.4 2.4c0 7.2-5.9 13.1-13.1 13.1z" fill="#fff"/><path d="m1319 309.2h-93.1c-1.3 0-2.4-1.1-2.4-2.4s1.1-2.4 2.4-2.4h93.1c1.3 0 2.4 1.1 2.4 2.4s-1.1 2.4-2.4 2.4z"/><path d="m1238.3 321.7h68v21.4h-68z" fill="#fabf62"/><path d="m1306.3 345.4h-68c-1.3 0-2.4-1.1-2.4-2.4v-21.4c0-1.3 1.1-2.4 2.4-2.4h68c1.3 0 2.4 1.1 2.4 2.4v21.4c-.1 1.4-1.1 2.4-2.4 2.4zm-65.7-4.7h63.3v-16.7h-63.3z"/><path d="m1215.1 361.1c-3.7 0-7.5-1.9-11-5.5-7.1-7.3-11.5-19.9-11.3-32.2.4-20.2 19.3-25.5 29.3-25.5 1.3 0 2.4 1.1 2.4 2.4s-1.1 2.4-2.4 2.4c-1 0-24.1.3-24.5 20.9-.2 11.1 3.7 22.5 10 28.9 2.6 2.6 5.3 4.1 7.7 4.1 1.1 0 1.5-.3 1.7-.6 1.5-1.6 1.2-6.8 1-11.4-.3-4.9-.6-9.9.8-13.6 3.2-8.4 8.2-11.3 19.7-11.5 1.3 0 2.4 1 2.4 2.3s-1 2.4-2.3 2.4c-10.5.2-13.1 2.6-15.3 8.5-1.1 2.8-.8 7.3-.5 11.7.4 6.1.7 11.8-2.2 14.9-1.7 1.1-3.4 1.8-5.5 1.8z"/><path d="m1330.8 361.1c-2.1 0-3.9-.7-5.2-2.1-2.9-3.1-2.6-8.8-2.2-14.9.3-4.4.5-8.9-.5-11.7-2.2-5.8-4.9-8.3-15.3-8.5-1.3 0-2.3-1.1-2.3-2.4s1-2.3 2.4-2.3c11.5.2 16.4 3.1 19.7 11.5 1.4 3.7 1.1 8.8.8 13.6-.3 4.6-.6 9.7 1 11.4.2.2.7.6 1.7.6 2.4 0 5.1-1.4 7.7-4.1 6.3-6.4 10.2-17.7 10-28.9-.4-20.6-23.6-20.9-24.5-20.9-1.3 0-2.4-1.1-2.3-2.4 0-1.3 1.1-2.4 2.4-2.4 9.9 0 28.8 5.3 29.3 25.5.2 12.3-4.2 25-11.3 32.2-3.9 3.9-7.7 5.8-11.4 5.8z"/><path d="m1200.1 287.7c-1 0-1.9-.6-2.2-1.6-.2-.7-5.7-18.1-4-42.7 1.6-22.7 10-55.8 41-85 .9-.9 2.4-.9 3.3.1.9.9.9 2.4-.1 3.3-29.8 28.2-37.9 60.1-39.5 81.9-1.7 23.6 3.7 40.7 3.8 40.9.4 1.2-.3 2.6-1.5 3-.3 0-.5.1-.8.1z"/><path d="m1162.4 303.8c-10.4 0-18.8-8.4-18.8-18.8s8.4-18.8 18.8-18.8 18.8 8.4 18.8 18.8-8.4 18.8-18.8 18.8zm0-32.8c-7.8 0-14.1 6.3-14.1 14.1s6.3 14.1 14.1 14.1 14.1-6.3 14.1-14.1-6.3-14.1-14.1-14.1z"/><path d="m1162.4 318.3c-10.7 0-20.8-5.2-27-13.8-.8-1.1-.5-2.5.5-3.3 1.1-.8 2.5-.5 3.3.5 5.4 7.4 14 11.9 23.2 11.9 3.8 0 7.6-.8 11.1-2.2 1.2-.5 2.6.1 3.1 1.3s-.1 2.6-1.3 3.1c-4 1.6-8.4 2.5-12.9 2.5z"/><path d="m1114.4 331.3c-1.3 0-2.4-1.1-2.4-2.4v-38.7c0-17.8-14.5-32.3-32.3-32.3h-5c-1.3 0-2.4-1.1-2.4-2.4s1.1-2.4 2.4-2.4h5c20.4 0 37 16.6 37 37v38.9c0 1.3-1 2.3-2.3 2.3z"/><path d="m1317.8 536.4c-1.2 0-2.2-.9-2.3-2l-20.8-158.5c-.2-1.3.7-2.5 2-2.6 1.3-.2 2.5.7 2.6 2l20.8 158.5c.2 1.3-.7 2.5-2 2.6-.1 0-.2 0-.3 0z"/><path d="m1231 503.6c-.1 0-.2 0-.3 0-1.3-.2-2.2-1.4-2-2.6l19.3-142.5c.2-1.3 1.4-2.2 2.6-2 1.3.2 2.2 1.4 2 2.6l-19.3 142.5c-.1 1.1-1.1 2-2.3 2z"/><path d="m1354.1 513.2c-.7 0-1.4-.3-1.8-.9-.8-1-.7-2.5.3-3.3l59.1-48.1c1-.8 2.5-.7 3.3.3s.7 2.5-.3 3.3l-59.1 48.1c-.4.4-.9.6-1.5.6z"/><path d="m1468.6 405.1h-95.6c-1.3 0-2.4-1.1-2.4-2.4s1.1-2.4 2.4-2.4h95.6c1.3 0 2.4 1.1 2.4 2.4s-1.1 2.4-2.4 2.4z"/><path d="m1458.2 170.7h-34.7c-1.3 0-2.4-1.1-2.4-2.4s1.1-2.4 2.4-2.4h34.7c1.3 0 2.4 1.1 2.4 2.4 0 1.4-1.1 2.4-2.4 2.4z"/><path d="m1455.1 267.1h-57.5c-1.3 0-2.4-1.1-2.4-2.4s1.1-2.4 2.4-2.4h57.5c1.3 0 2.4 1.1 2.4 2.4s-1.1 2.4-2.4 2.4z"/><path d="m1455.1 281h-57.5c-1.3 0-2.4-1.1-2.4-2.4s1.1-2.4 2.4-2.4h57.5c1.3 0 2.4 1.1 2.4 2.4s-1.1 2.4-2.4 2.4z"/><path d="m1438.9 294.9h-41.2c-1.3 0-2.4-1.1-2.4-2.4s1.1-2.4 2.4-2.4h41.2c1.3 0 2.4 1.1 2.4 2.4s-1.1 2.4-2.4 2.4z"/><path d="m1471.5 308.9h-73.9c-1.3 0-2.4-1.1-2.4-2.4s1.1-2.4 2.4-2.4h73.9c1.3 0 2.4 1.1 2.4 2.4s-1.1 2.4-2.4 2.4z"/><path d="m1409.9 363.6c-4.3 0-7.8-3.5-7.8-7.8s3.5-7.8 7.8-7.8 7.8 3.5 7.8 7.8-3.5 7.8-7.8 7.8zm0-10.8c-1.7 0-3.1 1.4-3.1 3.1s1.4 3.1 3.1 3.1 3.1-1.4 3.1-3.1c0-1.8-1.4-3.1-3.1-3.1z"/><path d="m1435.9 363.6c-4.3 0-7.8-3.5-7.8-7.8s3.5-7.8 7.8-7.8 7.8 3.5 7.8 7.8-3.5 7.8-7.8 7.8zm0-10.8c-1.7 0-3.1 1.4-3.1 3.1s1.4 3.1 3.1 3.1 3.1-1.4 3.1-3.1c0-1.8-1.4-3.1-3.1-3.1z"/><path d="m1461.9 363.6c-4.3 0-7.8-3.5-7.8-7.8s3.5-7.8 7.8-7.8 7.8 3.5 7.8 7.8-3.5 7.8-7.8 7.8zm0-10.8c-1.7 0-3.1 1.4-3.1 3.1s1.4 3.1 3.1 3.1 3.1-1.4 3.1-3.1c0-1.8-1.4-3.1-3.1-3.1z"/><path d="m1638.6 348.1h-59.7c-4.3 0-7.8-3.5-7.8-7.8 0-4.3 3.5-7.8 7.8-7.8h59.7c4.3 0 7.8 3.5 7.8 7.8.1 4.3-3.4 7.8-7.8 7.8z" fill="#ebf0f6"/><path d="m1638.6 350.4h-59.7c-5.6 0-10.2-4.6-10.2-10.2s4.6-10.2 10.2-10.2h59.7c5.6 0 10.2 4.6 10.2 10.2s-4.6 10.2-10.2 10.2zm-59.7-15.7c-3 0-5.5 2.5-5.5 5.5s2.5 5.5 5.5 5.5h59.7c3 0 5.5-2.5 5.5-5.5s-2.5-5.5-5.5-5.5z"/><path d="m1633.3 363.7h-49c-4.3 0-7.8-3.5-7.8-7.8 0-4.3 3.5-7.8 7.8-7.8h49c4.3 0 7.8 3.5 7.8 7.8 0 4.3-3.5 7.8-7.8 7.8z" fill="#ebf0f6"/><path d="m1633.3 366h-49c-5.6 0-10.2-4.6-10.2-10.2s4.6-10.2 10.2-10.2h49c5.6 0 10.2 4.6 10.2 10.2s-4.6 10.2-10.2 10.2zm-49-15.7c-3 0-5.5 2.5-5.5 5.5s2.5 5.5 5.5 5.5h49c3 0 5.5-2.5 5.5-5.5s-2.5-5.5-5.5-5.5z"/><path d="m1627.6 379.4h-37.6c-4.3 0-7.8-3.5-7.8-7.8 0-4.3 3.5-7.8 7.8-7.8h37.6c4.3 0 7.8 3.5 7.8 7.8 0 4.3-3.5 7.8-7.8 7.8z" fill="#ebf0f6"/><path d="m1627.6 381.7h-37.6c-5.6 0-10.2-4.6-10.2-10.2s4.6-10.2 10.2-10.2h37.6c5.6 0 10.2 4.6 10.2 10.2s-4.6 10.2-10.2 10.2zm-37.6-15.7c-3 0-5.5 2.5-5.5 5.5s2.5 5.5 5.5 5.5h37.6c3 0 5.5-2.5 5.5-5.5s-2.5-5.5-5.5-5.5z"/><path d="m1617.3 391.4h-15.6c-6.7 0-12.1-5.4-12.1-12.1 0-1.3 1.1-2.4 2.4-2.4s2.4 1.1 2.4 2.4c0 4.1 3.3 7.4 7.4 7.4h15.6c4.1 0 7.4-3.3 7.4-7.4 0-1.3 1.1-2.4 2.4-2.4s2.4 1.1 2.4 2.4c-.2 6.7-5.6 12.1-12.3 12.1z"/><path d="m1600.9 334.7c-1.3 0-2.4-1.1-2.4-2.4v-59.6h-1.6c-8.7 0-12.3-4.1-13.6-6.6-2.1-3.9-1.9-9 .7-13 2.1-3.3 5.5-5.2 9-5 2.4.2 4.5 1.2 6.2 3.1 3.8 4.4 4.3 12.3 4.2 16.7h5.4c1.3 0 2.4 1.1 2.4 2.4s-1.1 2.4-2.4 2.4h-5.5v59.6c0 1.4-1.1 2.4-2.4 2.4zm-8.5-81.7c-2.4 0-3.9 2-4.4 2.8-1.6 2.5-1.8 5.8-.5 8.2 1.5 2.7 4.8 4.1 9.5 4.1h1.7c0-4.1-.5-10.6-3.1-13.6-.8-.9-1.7-1.4-2.9-1.5-.1 0-.2 0-.3 0z"/><path d="m1616.6 334.7c-1.3 0-2.4-1.1-2.4-2.4v-59.6h-5.5c-1.3 0-2.4-1.1-2.4-2.4s1.1-2.4 2.4-2.4h5.4c0-4.4.4-12.3 4.2-16.7 1.6-1.9 3.7-3 6.2-3.1 3.5-.2 6.9 1.6 9 5 2.5 4 2.8 9.1.7 13-1.3 2.5-4.9 6.6-13.6 6.6h-1.6v59.6c0 1.4-1.1 2.4-2.4 2.4zm2.3-66.6h1.7c4.7 0 8-1.4 9.5-4.1 1.3-2.4 1.1-5.7-.5-8.2-.6-.9-2.2-3-4.7-2.8-1.2.1-2.1.5-2.9 1.5-2.6 2.9-3.2 9.4-3.1 13.6z"/><path d="m1559.7 265.8c-1.1 0-2.1-.8-2.3-1.9-.1-.5-9.4-45.4 24.3-62.2 1.2-.6 2.6-.1 3.2 1.1s.1 2.6-1.1 3.2c-30.5 15.2-21.9 56.6-21.8 57 .3 1.3-.5 2.5-1.8 2.8-.2 0-.4 0-.5 0z"/><path d="m1557.8 399.9c-.4 0-.8-.1-1.1-.3l-8.9-4.7-8.9 4.7c-.8.4-1.8.3-2.5-.2s-1.1-1.4-.9-2.3l1.7-9.9-7.2-7c-.6-.6-.9-1.6-.6-2.4.3-.9 1-1.5 1.9-1.6l9.9-1.4 4.4-9c.4-.8 1.2-1.3 2.1-1.3.9 0 1.7.5 2.1 1.3l4.4 9 9.9 1.4c.9.1 1.6.8 1.9 1.6.3.9 0 1.8-.6 2.4l-7.2 7 1.7 9.9c.2.9-.2 1.8-.9 2.3-.2.3-.7.5-1.2.5zm-10-10c.4 0 .8.1 1.1.3l5.8 3-1.1-6.4c-.1-.8.1-1.5.7-2.1l4.7-4.5-6.4-.9c-.8-.1-1.4-.6-1.8-1.3l-2.9-5.8-2.9 5.8c-.3.7-1 1.2-1.8 1.3l-6.4.9 4.7 4.5c.6.5.8 1.3.7 2.1l-1.1 6.4 5.8-3c.2-.2.6-.3.9-.3z"/><path d="m1613.3 481.3h86.3v47.3h-86.3z" fill="#4088da"/><path d="m1699.6 530.9h-86.3c-1.3 0-2.4-1.1-2.4-2.4v-47.3c0-1.3 1.1-2.4 2.4-2.4h86.3c1.3 0 2.4 1.1 2.4 2.4v47.3c0 1.4-1.1 2.4-2.4 2.4zm-83.9-4.7h81.6v-42.6h-81.6z"/><path d="m1656.5 549.2c-11.4 0-20.6-9.3-20.6-20.6 0-1.3 1.1-2.4 2.4-2.4s2.4 1.1 2.4 2.4c0 8.8 7.1 15.9 15.9 15.9s15.9-7.1 15.9-15.9c0-1.3 1.1-2.4 2.4-2.4s2.4 1.1 2.4 2.4c-.2 11.4-9.4 20.6-20.8 20.6z"/><path d="m1643.9 539.5c-1.3-.4-2.6.4-2.9 1.6l-8.8 30.8c-.1.2-.1.4-.1.6h4.8l8.6-30.1c.3-1.3-.4-2.6-1.6-2.9z"/><path d="m1680.8 571.9-8.8-30.8c-.4-1.3-1.7-2-2.9-1.6s-2 1.7-1.6 2.9l8.6 30.1h4.8c0-.2 0-.4-.1-.6z"/><path d="m1670.3 495.7h-36.7c-1.3 0-2.4-1.1-2.4-2.4s1.1-2.4 2.4-2.4h36.7c1.3 0 2.4 1.1 2.4 2.4s-1.1 2.4-2.4 2.4z"/><path d="m1654.1 508.1h-20.4c-1.3 0-2.4-1.1-2.4-2.4s1.1-2.4 2.4-2.4h20.4c1.3 0 2.4 1.1 2.4 2.4s-1.1 2.4-2.4 2.4z"/><path d="m1632 483.6c-6.5 0-11.8-5.3-11.8-11.8s5.3-11.8 11.8-11.8 11.8 5.3 11.8 11.8-5.3 11.8-11.8 11.8zm0-18.9c-3.9 0-7.1 3.2-7.1 7.1s3.2 7.1 7.1 7.1 7.1-3.2 7.1-7.1-3.2-7.1-7.1-7.1z"/><path d="m1670.3 483.6c-6.5 0-11.8-5.3-11.8-11.8s5.3-11.8 11.8-11.8 11.8 5.3 11.8 11.8-5.3 11.8-11.8 11.8zm0-18.9c-3.9 0-7.1 3.2-7.1 7.1s3.2 7.1 7.1 7.1 7.1-3.2 7.1-7.1-3.2-7.1-7.1-7.1z"/><path d="m1720 526.8c-.4 0-.8-.1-1.1-.3l-20.3-11.1c-.8-.4-1.2-1.2-1.2-2.1v-19.3c0-.9.5-1.7 1.2-2.1l20.3-11.1c.7-.4 1.6-.4 2.3 0s1.2 1.2 1.2 2v41.5c0 .8-.4 1.6-1.2 2-.4.4-.8.5-1.2.5zm-18-14.9 15.6 8.6v-33.6l-15.6 8.5z"/><path d="m1713.4 445.4h-26.4c-1.3 0-2.4-1.1-2.4-2.4v-100.4h-10.8c-.9 0-1.7-.5-2.1-1.2-.4-.8-.4-1.7.1-2.4l26.3-39.2c.4-.7 1.2-1 2-1s1.5.4 2 1l26.3 39.2c.5.7.5 1.7.1 2.4-.4.8-1.2 1.2-2.1 1.2h-10.8v100.5c.1 1.3-.9 2.3-2.2 2.3zm-24.1-4.7h21.7v-100.5c0-1.3 1.1-2.4 2.4-2.4h8.7l-21.9-32.7-21.9 32.7h8.7c1.3 0 2.4 1.1 2.4 2.4v100.5z"/><path d="m1725.8 458.2h-12.1c-1.3 0-2.4-1.1-2.4-2.4s1.1-2.4 2.4-2.4h12.1c1.8 0 3.3-1.5 3.3-3.3v-85c0-1.3 1.1-2.4 2.4-2.4s2.4 1.1 2.4 2.4v85c-.1 4.5-3.7 8.1-8.1 8.1z"/><path d="m1175.9 444.2h-20.7c-.7 0-1.3-.3-1.8-.8-.6-.7-15.2-17.8-7.3-40.3 6-17 17.5-25.2 18-25.6.8-.6 1.9-.6 2.7 0 .5.3 12 8.6 18 25.6 8 22.4-6.6 39.5-7.3 40.3-.2.5-.9.8-1.6.8zm-19.5-4.7h18.4c2.6-3.4 11.9-17.3 5.7-34.8-4.3-12.2-11.9-19.6-14.9-22.2-3.1 2.6-10.6 10-14.9 22.2-6.2 17.5 3.1 31.3 5.7 34.8z"/><path d="m1175.4 392.6h-19.9c-1.3 0-2.4-1.1-2.4-2.4s1.1-2.4 2.4-2.4h19.9c1.3 0 2.4 1.1 2.4 2.4 0 1.4-1.1 2.4-2.4 2.4z"/><ellipse cx="1165.6" cy="411.4" fill="#25ce9e" rx="7.4" ry="7.4" transform="matrix(.3827 -.9239 .9239 .3827 339.4934 1330.8209)"/><path d="m1165.6 421.2c-5.4 0-9.8-4.4-9.8-9.8s4.4-9.8 9.8-9.8 9.8 4.4 9.8 9.8-4.4 9.8-9.8 9.8zm0-14.9c-2.8 0-5.1 2.3-5.1 5.1s2.3 5.1 5.1 5.1 5.1-2.3 5.1-5.1-2.3-5.1-5.1-5.1z"/><path d="m1155.3 441.8h20.9v11.5h-20.9z" fill="#4088da"/><path d="m1176.1 455.7h-20.9c-1.3 0-2.4-1.1-2.4-2.4v-11.5c0-1.3 1.1-2.4 2.4-2.4h20.9c1.3 0 2.4 1.1 2.4 2.4v11.5c0 1.3-1.1 2.4-2.4 2.4zm-18.5-4.8h16.1v-6.8h-16.1z"/><path d="m1145.7 460.8c-1.2 0-2.3-.7-2.7-.9-2.8-1.8-4.9-5.4-5.4-9.5-.6-4.4.5-8.5 3.1-11.3 4.7-5.1 12.3-1.8 16 .9.7.5 1.1 1.3 1 2.2-.1.8-.7 1.6-1.4 1.9-1 .4-3.8 1.8-5.2 3.6-1.8 2.3-1.9 5.3-2 7.7-.1 2.2-.1 4.2-1.9 5.2-.6.1-1.1.2-1.5.2zm1.2-19.7c-1.1 0-2.1.3-2.9 1.1-1.6 1.7-2.3 4.5-1.9 7.4.3 2.1 1.1 4 2.2 5.2.1-2.8.3-6.8 3-10.2.9-1.1 2-2.1 3.1-2.8-1.1-.3-2.3-.7-3.5-.7z"/><path d="m1185.7 460.8c-.5 0-1-.1-1.4-.4-1.8-1-1.9-3-1.9-5.2-.1-2.4-.2-5.4-2-7.7-1.4-1.8-4.2-3.2-5.2-3.6-.8-.3-1.3-1.1-1.4-1.9-.1-.9.3-1.7 1-2.2 3.8-2.7 11.4-5.9 16-.9 2.6 2.8 3.7 6.9 3.1 11.3-.6 4.2-2.6 7.8-5.4 9.5-.5.4-1.5 1.1-2.8 1.1zm-4.7-18.9c1.1.8 2.2 1.7 3.1 2.8 2.7 3.4 2.9 7.5 3 10.2 1.1-1.2 1.9-3.1 2.2-5.2.4-2.9-.3-5.7-1.9-7.4-1.6-1.8-4.2-1.3-6.4-.4z"/><path d="m1154.3 538.6c-.1 0-.2 0-.3 0-1.3-.1-2.2-1.3-2.1-2.6l7.8-70.1c.1-1.3 1.3-2.2 2.6-2.1s2.2 1.3 2.1 2.6l-7.8 70.1c-.1 1.2-1.1 2.1-2.3 2.1z"/><path d="m176.6 486.4c-.3 0-.7-.1-1-.2-.6-.3-1-.7-1.2-1.3l-41.2-114.3c-.2-.6-.2-1.2.1-1.8s.7-1 1.3-1.2l10.1-3.6c3.8-1.4 7.9-1.2 11.5.5s6.4 4.7 7.8 8.5l32.6 90.4c2.8 7.8-1.2 16.5-9.1 19.3l-10.1 3.6c-.3 0-.5.1-.8.1zm-38.2-115.3 39.6 109.9 7.9-2.8c5.4-1.9 8.2-7.9 6.2-13.2l-32.6-90.4c-.9-2.6-2.8-4.7-5.3-5.9s-5.3-1.3-7.9-.4z"/><path d="m109.5 516.5c-1.4 0-2.8-.3-4.1-.9-2.3-1.1-4.1-3-5-5.5l-30.4-84.3c-.4-1.2.2-2.6 1.4-3s2.6.2 3 1.4l30.4 84.3c.4 1.2 1.4 2.2 2.5 2.8 1.2.6 2.5.6 3.8.2l6.5-2.3c2.9-1 4.4-4.3 3.4-7.2-.4-1.2.2-2.6 1.4-3s2.6.2 3 1.4c1.9 5.3-.9 11.3-6.2 13.2l-6.5 2.3c-1 .4-2.1.6-3.2.6z"/><path d="m118.9 555.3c-1.1 0-2.2-.2-3.3-.7-1.9-.9-3.3-2.4-4-4.4l-9.8-27.2c-.7-1.9-.6-4 .3-5.9s2.4-3.3 4.4-4l16.4-5.9c1.9-.7 4-.6 5.9.3s3.3 2.4 4 4.4l9.8 27.2c.7 1.9.6 4-.3 5.9s-2.4 3.3-4.4 4l-16.4 5.9c-.9.3-1.7.4-2.6.4zm6.6-43.8c-.3 0-.7.1-1 .2l-16.4 5.9c-.8.3-1.4.8-1.7 1.6-.3.7-.4 1.5-.1 2.3l9.8 27.2c.3.8.8 1.4 1.6 1.7.7.3 1.5.4 2.3.1l16.4-5.9c.8-.3 1.4-.8 1.7-1.6s.4-1.5.1-2.3l-9.8-27.2c-.3-.8-.8-1.4-1.6-1.7-.4-.2-.8-.3-1.3-.3z"/><path d="m37.4 439.9c-.3 0-.6-.1-.9-.2-1.2-.5-1.7-1.9-1.2-3.1.2-.5 5.1-11.5 27.9-22.2 15.3-7.2 38.7-22.3 43-32 .5-1.2 1.9-1.7 3.1-1.2s1.7 1.9 1.2 3.1c-5.5 12.4-32.9 28.5-45.3 34.3-21.1 9.9-25.5 19.7-25.5 19.8-.5 1-1.4 1.5-2.3 1.5z"/><path d="m184 435.7c-.9 0-1.8-.5-2.2-1.5-.5-1.2.1-2.6 1.3-3.1 5.3-2.2 8.8-7.3 8.8-13.1 0-7.8-6.4-14.2-14.2-14.2-1.5 0-3 .2-4.4.7-1.2.4-2.6-.3-3-1.5s.3-2.6 1.5-3c1.9-.6 3.9-.9 5.9-.9 10.4 0 18.9 8.5 18.9 18.9 0 7.7-4.6 14.5-11.7 17.4-.3.2-.6.3-.9.3z"/><path d="m206.4 408.3c-.9 0-1.7-.5-2.1-1.3-.6-1.2-.1-2.6 1.1-3.1l9.3-4.4c1.2-.6 2.6-.1 3.1 1.1.6 1.2.1 2.6-1.1 3.1l-9.3 4.4c-.4.1-.7.2-1 .2z"/><path d="m223.6 450.9c-.1 0-.2 0-.3 0l-10.2-1.2c-1.3-.2-2.2-1.3-2.1-2.6.2-1.3 1.3-2.2 2.6-2.1l10.2 1.2c1.3.2 2.2 1.3 2.1 2.6-.1 1.2-1.1 2.1-2.3 2.1z"/><path d="m181.4 373.6c-.6 0-1.2-.2-1.6-.6-.9-.9-1-2.4-.1-3.3l7.1-7.5c.9-.9 2.4-1 3.3-.1s1 2.4.1 3.3l-7.1 7.5c-.4.4-1.1.7-1.7.7z"/><path d="m138.6 464.5c-.3 0-.6-.1-.9-.2-13.2-5.3-35.7 0-36 .1-1.3.3-2.5-.5-2.8-1.7-.3-1.3.5-2.5 1.7-2.8 1-.2 24.2-5.7 38.8.1 1.2.5 1.8 1.9 1.3 3.1-.3.8-1.1 1.4-2.1 1.4z"/><path d="m207.9 273.5c-.1 0-.2 0-.3 0-1.3-.2-2.2-1.4-2-2.7 1.9-13 9.3-24.7 20.2-32.1 1.1-.7 2.5-.4 3.3.6.7 1.1.4 2.5-.6 3.3-9.9 6.7-16.5 17.2-18.2 28.9-.3 1.2-1.3 2-2.4 2z"/><path d="m308.8 285.2h-15.9c-1.3 0-2.4-1.1-2.4-2.4s1.1-2.4 2.4-2.4h15.9c1.3 0 2.4 1.1 2.4 2.4-.1 1.3-1.1 2.4-2.4 2.4zm-90.3 0h-15.9c-1.3 0-2.4-1.1-2.4-2.4s1.1-2.4 2.4-2.4h15.9c1.3 0 2.4 1.1 2.4 2.4s-1.1 2.4-2.4 2.4z"/><path d="m255.7 339c-1.3 0-2.4-1.1-2.4-2.4v-15.9c0-1.3 1.1-2.4 2.4-2.4s2.4 1.1 2.4 2.4v15.9c0 1.4-1.1 2.4-2.4 2.4z"/><path d="m255.7 247.2c-1.3 0-2.4-1.1-2.4-2.4v-15.8c0-1.3 1.1-2.4 2.4-2.4s2.4 1.1 2.4 2.4v15.9c0 1.3-1.1 2.3-2.4 2.3z"/><ellipse cx="255.7" cy="282.8" fill="#2b71b5" rx="7.7" ry="7.7" transform="matrix(.7071 -.7071 .7071 .7071 -125.0937 263.6546)"/><path d="m14.3 250.5h-3c-1.3 0-2.4-1.1-2.4-2.4s1.1-2.4 2.4-2.4h3c1.3 0 2.4 1.1 2.4 2.4s-1.1 2.4-2.4 2.4z"/><path d="m146.5 250.5h-6.3c-1.3 0-2.4-1.1-2.4-2.4s1.1-2.4 2.4-2.4h6.3c1.3 0 2.4 1.1 2.4 2.4-.1 1.3-1.1 2.4-2.4 2.4zm-22.1 0h-6.3c-1.3 0-2.4-1.1-2.4-2.4s1.1-2.4 2.4-2.4h6.3c1.3 0 2.4 1.1 2.4 2.4s-1.1 2.4-2.4 2.4zm-22 0h-6.3c-1.3 0-2.4-1.1-2.4-2.4s1.1-2.4 2.4-2.4h6.3c1.3 0 2.4 1.1 2.4 2.4s-1.1 2.4-2.4 2.4zm-22 0h-6.3c-1.3 0-2.4-1.1-2.4-2.4s1.1-2.4 2.4-2.4h6.3c1.3 0 2.4 1.1 2.4 2.4-.1 1.3-1.1 2.4-2.4 2.4zm-22 0h-6.3c-1.3 0-2.4-1.1-2.4-2.4s1.1-2.4 2.4-2.4h6.3c1.3 0 2.4 1.1 2.4 2.4-.1 1.3-1.1 2.4-2.4 2.4zm-22.1 0h-6.3c-1.3 0-2.4-1.1-2.4-2.4s1.1-2.4 2.4-2.4h6.3c1.3 0 2.4 1.1 2.4 2.4s-1.1 2.4-2.4 2.4z"/><path d="m165.2 250.5h-3c-1.3 0-2.4-1.1-2.4-2.4s1.1-2.4 2.4-2.4h3c1.3 0 2.4 1.1 2.4 2.4s-1.1 2.4-2.4 2.4z"/><path d="m1500.3 312h-3c-1.3 0-2.4-1.1-2.4-2.4s1.1-2.4 2.4-2.4h3c1.3 0 2.4 1.1 2.4 2.4-.1 1.4-1.1 2.4-2.4 2.4z"/><path d="m1556.8 312h-5.4c-1.3 0-2.4-1.1-2.4-2.4s1.1-2.4 2.4-2.4h5.4c1.3 0 2.4 1.1 2.4 2.4 0 1.4-1.1 2.4-2.4 2.4zm-18.8 0h-5.4c-1.3 0-2.4-1.1-2.4-2.4s1.1-2.4 2.4-2.4h5.4c1.3 0 2.4 1.1 2.4 2.4-.1 1.4-1.1 2.4-2.4 2.4zm-18.9 0h-5.4c-1.3 0-2.4-1.1-2.4-2.4s1.1-2.4 2.4-2.4h5.4c1.3 0 2.4 1.1 2.4 2.4 0 1.4-1.1 2.4-2.4 2.4z"/><path d="m1573.3 312h-3c-1.3 0-2.4-1.1-2.4-2.4s1.1-2.4 2.4-2.4h3c1.3 0 2.4 1.1 2.4 2.4-.1 1.4-1.1 2.4-2.4 2.4z"/><path d="m1609.6 402.9c-1.3 0-2.4-1.1-2.4-2.4v-3c0-1.3 1.1-2.4 2.4-2.4s2.4 1.1 2.4 2.4v3c-.1 1.3-1.1 2.4-2.4 2.4z"/><path d="m1609.6 443.4c-1.3 0-2.4-1.1-2.4-2.4v-5.8c0-1.3 1.1-2.4 2.4-2.4s2.4 1.1 2.4 2.4v5.8c-.1 1.3-1.1 2.4-2.4 2.4zm0-20.3c-1.3 0-2.4-1.1-2.4-2.4v-5.7c0-1.3 1.1-2.4 2.4-2.4s2.4 1.1 2.4 2.4v5.8c-.1 1.3-1.1 2.3-2.4 2.3z"/><path d="m1609.6 460.8h-3c-1.3 0-2.4-1.1-2.4-2.4s1.1-2.4 2.4-2.4h.6v-.6c0-1.3 1.1-2.4 2.4-2.4s2.4 1.1 2.4 2.4v3c-.1 1.4-1.1 2.4-2.4 2.4z"/><path d="m1591.5 460.8h-6c-1.3 0-2.4-1.1-2.4-2.4s1.1-2.4 2.4-2.4h6c1.3 0 2.4 1.1 2.4 2.4 0 1.4-1.1 2.4-2.4 2.4zm-21 0h-6c-1.3 0-2.4-1.1-2.4-2.4s1.1-2.4 2.4-2.4h6c1.3 0 2.4 1.1 2.4 2.4-.1 1.4-1.1 2.4-2.4 2.4zm-21.1 0h-6c-1.3 0-2.4-1.1-2.4-2.4s1.1-2.4 2.4-2.4h6c1.3 0 2.4 1.1 2.4 2.4 0 1.4-1.1 2.4-2.4 2.4z"/><path d="m1528.3 460.8h-3c-1.3 0-2.4-1.1-2.4-2.4s1.1-2.4 2.4-2.4h3c1.3 0 2.4 1.1 2.4 2.4 0 1.4-1.1 2.4-2.4 2.4z"/><path d="m213.5 117.9c-1.3 0-2.4-.9-2.6-2.1-.3-1.4.6-2.8 2.1-3.1.2 0 .4-.1.5-.1 1.3 0 2.4.9 2.6 2.1.1.7 0 1.4-.4 2s-1 1-1.7 1.1c-.1.1-.3.1-.5.1z"/><path d="m255.7 117.9c-1.3 0-2.4-.9-2.6-2.1-.3-1.4.6-2.8 2.1-3.1.2 0 .4-.1.5-.1 1.3 0 2.4.9 2.6 2.1.1.7 0 1.4-.4 2s-1 1-1.7 1.1c-.1.1-.3.1-.5.1z"/><path d="m235.4 238.8c-1.3 0-2.4-.9-2.6-2.1-.1-.7 0-1.4.4-2s1-1 1.7-1.1c.2 0 .4-.1.5-.1 1.3 0 2.4.9 2.6 2.1.3 1.4-.6 2.8-2.1 3.1-.1.1-.3.1-.5.1z"/><path d="m45.7 284.8c-1.3 0-2.4-.9-2.6-2.1-.1-.7 0-1.4.4-2s1-1 1.7-1.1c.2 0 .4-.1.5-.1 1.3 0 2.4.9 2.6 2.1.3 1.4-.6 2.8-2.1 3.1-.2.1-.4.1-.5.1z"/><path d="m114.6 376.2c-1.3 0-2.4-.9-2.6-2.1-.1-.7 0-1.4.4-2s1-1 1.7-1.1c.2 0 .4-.1.5-.1 1.3 0 2.4.9 2.6 2.1.1.7 0 1.4-.4 2s-1 1-1.7 1.1c-.1 0-.3.1-.5.1z"/><path d="m345.4 448.2c-1.3 0-2.4-.9-2.6-2.1-.3-1.4.6-2.8 2.1-3.1.2 0 .4-.1.5-.1 1.3 0 2.4.9 2.6 2.1.1.7 0 1.4-.4 2s-1 1-1.7 1.1c-.2.1-.4.1-.5.1z"/><path d="m327.5 366.1c-1.3 0-2.4-.9-2.6-2.1-.1-.7 0-1.4.4-2s1-1 1.7-1.1c.2 0 .4-.1.5-.1 1.3 0 2.4.9 2.6 2.1.3 1.4-.6 2.8-2.1 3.1-.1.1-.3.1-.5.1z"/><path d="m694.4 119.5c-1.3 0-2.4-.9-2.6-2.1-.1-.7 0-1.4.4-2s1-1 1.7-1.1c.2 0 .4-.1.5-.1 1.3 0 2.4.9 2.6 2.1.3 1.4-.6 2.8-2.1 3.1-.2.1-.3.1-.5.1z"/><path d="m744.7 186.4c-1.3 0-2.4-.9-2.6-2.1-.1-.7 0-1.4.4-2s1-1 1.7-1.1c.2 0 .4-.1.5-.1 1.3 0 2.4.9 2.6 2.1.1.7 0 1.4-.4 2s-1 1-1.7 1.1c-.2.1-.3.1-.5.1z"/><path d="m804.8 235.9c-1.3 0-2.4-.9-2.6-2.1-.3-1.4.6-2.8 2.1-3.1.2 0 .4-.1.5-.1 1.3 0 2.4.9 2.6 2.1.3 1.4-.6 2.8-2.1 3.1-.2.1-.4.1-.5.1z"/><path d="m1095.8 102.1c-1.3 0-2.4-.9-2.6-2.1-.1-.7 0-1.4.4-2s1-1 1.7-1.1c.2 0 .4-.1.5-.1 1.3 0 2.4.9 2.6 2.1.3 1.4-.6 2.9-2.1 3.1-.1.1-.3.1-.5.1z"/><path d="m1183.7 177.7c-1.3 0-2.4-.9-2.6-2.1-.1-.7 0-1.4.4-2s1-1 1.7-1.1c.2 0 .4-.1.5-.1 1.3 0 2.4.9 2.6 2.1.3 1.4-.6 2.8-2.1 3.1-.1.1-.3.1-.5.1z"/><path d="m1059.2 258.2c-1.3 0-2.4-.9-2.6-2.1-.1-.7 0-1.4.4-2s1-1 1.7-1.1c.2 0 .4-.1.5-.1 1.3 0 2.4.9 2.6 2.1.3 1.4-.6 2.8-2.1 3.1-.1.1-.3.1-.5.1z"/><path d="m1283.2 252.5c-1.3 0-2.4-.9-2.6-2.1-.3-1.4.6-2.8 2.1-3.1.2 0 .4-.1.5-.1 1.3 0 2.4.9 2.6 2.1.3 1.4-.6 2.8-2.1 3.1-.1.1-.3.1-.5.1z" fill="#fff"/><path d="m1410.6 171c-1.3 0-2.4-.9-2.6-2.1-.3-1.4.6-2.8 2.1-3.1.2 0 .4-.1.5-.1 1.3 0 2.4.9 2.6 2.1.3 1.4-.6 2.8-2.1 3.1-.2.1-.4.1-.5.1z"/><path d="m1229.6 514.7c-1.3 0-2.4-.9-2.6-2.1-.1-.7 0-1.4.4-2s1-1 1.7-1.1c.2 0 .4-.1.5-.1 1.3 0 2.4.9 2.6 2.1.1.7 0 1.4-.4 2s-1 1-1.7 1.1c-.2.1-.4.1-.5.1z"/><path d="m1318.9 545.6c-1.3 0-2.4-.9-2.6-2.1-.1-.7 0-1.4.4-2s1-1 1.7-1.1c.2 0 .4-.1.5-.1 1.3 0 2.4.9 2.6 2.1.3 1.4-.6 2.8-2.1 3.1-.2.1-.3.1-.5.1z"/><path d="m1152.8 549.5c-1.3 0-2.4-.9-2.6-2.1-.3-1.4.6-2.8 2.1-3.1.2 0 .4-.1.5-.1 1.3 0 2.4.9 2.6 2.1.3 1.4-.6 2.8-2.1 3.1-.1.1-.3.1-.5.1z"/><path d="m1485.4 405.4c-1.3 0-2.4-.9-2.6-2.1-.3-1.4.6-2.8 2.1-3.1.2 0 .4-.1.5-.1 1.3 0 2.4.9 2.6 2.1.1.7 0 1.4-.4 2s-1 1-1.7 1.1c-.1.1-.3.1-.5.1z"/><path d="m1702.7 458.5c-1.3 0-2.4-.9-2.6-2.1-.1-.7 0-1.4.4-2s1-1 1.7-1.1c.2 0 .4-.1.5-.1 1.3 0 2.4.9 2.6 2.1.1.7 0 1.4-.4 2s-1 1-1.7 1.1c-.1.1-.3.1-.5.1z"/><path d="m1599.5 203.5c-1.3 0-2.4-.9-2.6-2.1-.3-1.4.6-2.8 2.1-3.1.2 0 .4-.1.5-.1 1.3 0 2.4.9 2.6 2.1.1.7 0 1.4-.4 2s-1 1-1.7 1.1c-.1.1-.3.1-.5.1z"/><path d="m285.9 236.5-50.3 69.6 8.3-4.8-1 9.5z"/><path d="m332.6 206.9c-1.3 0-2.4-1.1-2.4-2.4v-6c0-1.3 1.1-2.4 2.4-2.4s2.4 1.1 2.4 2.4v6c0 1.4-1.1 2.4-2.4 2.4zm0-21c-1.3 0-2.4-1.1-2.4-2.4v-6c0-1.3 1.1-2.4 2.4-2.4s2.4 1.1 2.4 2.4v6c0 1.4-1.1 2.4-2.4 2.4zm94.5-15.6c-1.3 0-2.4-1.1-2.4-2.4v-6c0-1.3 1.1-2.4 2.4-2.4s2.4 1.1 2.4 2.4v6c-.1 1.3-1.1 2.4-2.4 2.4zm-94.5-5.4c-1.3 0-2.4-1.1-2.4-2.4v-6c0-1.3 1.1-2.4 2.4-2.4s2.4 1.1 2.4 2.4v6c0 1.4-1.1 2.4-2.4 2.4zm94.5-15.6c-1.3 0-2.4-1.1-2.4-2.4v-6c0-1.3 1.1-2.4 2.4-2.4s2.4 1.1 2.4 2.4v6c-.1 1.3-1.1 2.4-2.4 2.4zm-94.5-5.4c-1.3 0-2.4-1.1-2.4-2.4v-6c0-1.3 1.1-2.4 2.4-2.4s2.4 1.1 2.4 2.4v6c0 1.4-1.1 2.4-2.4 2.4zm94.5-15.6c-.5 0-1-.2-1.4-.5h-4.2c-1.3 0-2.4-1.1-2.4-2.4s1.1-2.4 2.4-2.4h5.5c1.3 0 2.4 1.1 2.4 2.4v.5c0 1.3-1 2.4-2.3 2.4zm-20.6-.5h-6c-1.3 0-2.4-1.1-2.4-2.4s1.1-2.4 2.4-2.4h6c1.3 0 2.4 1.1 2.4 2.4 0 1.4-1.1 2.4-2.4 2.4zm-21 0h-6c-1.3 0-2.4-1.1-2.4-2.4s1.1-2.4 2.4-2.4h6c1.3 0 2.4 1.1 2.4 2.4 0 1.4-1.1 2.4-2.4 2.4zm-21 0h-6c-1.3 0-2.4-1.1-2.4-2.4s1.1-2.4 2.4-2.4h6c1.3 0 2.4 1.1 2.4 2.4 0 1.4-1.1 2.4-2.4 2.4zm-21 0h-6c-1.3 0-2.4-1.1-2.4-2.4s1.1-2.4 2.4-2.4h6c1.3 0 2.4 1.1 2.4 2.4 0 1.4-1.1 2.4-2.4 2.4z"/><path d="m821.1 149.7c-5.3 0-9.9-2-13.6-6-13.3-14-11.7-48.1-11.6-49.6.1-1.3 1.2-2.3 2.5-2.2s2.3 1.2 2.2 2.5c0 .3-1.5 33.6 10.4 46.1 2.9 3 6.2 4.5 10.2 4.5 1.3 0 2.4 1.1 2.4 2.4s-1.2 2.3-2.5 2.3z"/><path d="m918.2 149.7c-1.3 0-2.4-1.1-2.4-2.4s1.1-2.4 2.4-2.4c12.2 0 21.3-22.3 21.3-42.1 0-1.3 1.1-2.4 2.4-2.4s2.4 1.1 2.4 2.4c-.1 22.7-10.5 46.9-26.1 46.9z"/><path d="m76.6 368.5h-6c-1.3 0-2.4-1.1-2.4-2.4s1.1-2.4 2.4-2.4h6c1.3 0 2.4 1.1 2.4 2.4-.1 1.3-1.1 2.4-2.4 2.4zm-21 0h-6c-1.3 0-2.4-1.1-2.4-2.4s1.1-2.4 2.4-2.4h6c1.3 0 2.4 1.1 2.4 2.4-.1 1.3-1.1 2.4-2.4 2.4zm-21 0h-6c-1.3 0-2.4-1.1-2.4-2.4s1.1-2.4 2.4-2.4h6c1.3 0 2.4 1.1 2.4 2.4-.1 1.3-1.1 2.4-2.4 2.4zm-21 0h-6c-1.3 0-2.4-1.1-2.4-2.4s1.1-2.4 2.4-2.4h6c1.3 0 2.4 1.1 2.4 2.4-.1 1.3-1.1 2.4-2.4 2.4zm73.3-4.7c-1.3 0-2.4-1.1-2.4-2.4v-6c0-1.3 1.1-2.4 2.4-2.4s2.4 1.1 2.4 2.4v6c0 1.4-1.1 2.4-2.4 2.4zm0-21c-1.3 0-2.4-1.1-2.4-2.4v-6c0-1.3 1.1-2.4 2.4-2.4s2.4 1.1 2.4 2.4v6c0 1.4-1.1 2.4-2.4 2.4z"/><path d="m811.7 446c-.6 0-1.2-.2-1.7-.7l-97.4-100.7-59.1 62.1c-.9.9-2.4 1-3.3.1s-1-2.4-.1-3.3l60.8-63.9c.4-.5 1.1-.7 1.7-.7.6 0 1.2.3 1.7.7l99.1 102.4c.9.9.9 2.4-.1 3.3-.4.5-1 .7-1.6.7z"/><path d="m921.5 446.7c-.5 0-1-.2-1.5-.5l-89-72.2-48.8 39.4c-1 .8-2.5.7-3.3-.4-.8-1-.7-2.5.4-3.3l50.3-40.6c.9-.7 2.1-.7 3 0l90.5 73.4c1 .8 1.2 2.3.3 3.3-.5.6-1.2.9-1.9.9z"/><path d="m698.5 373.4c-.2 0-.3 0-.5-.1-.6-.1-1.2-.5-1.5-1.1l-5.4-9.3c-.7-1.1-.3-2.6.8-3.2 1.1-.7 2.6-.3 3.2.8l4.1 7.1 7.9-5.4c.7-.5 1.6-.5 2.4-.2l13.1 6.4 13.6-4.3c1.2-.4 2.6.3 3 1.5s-.3 2.6-1.5 3l-14.5 4.6c-.6.2-1.2.1-1.8-.1l-12.8-6.2-8.9 6.1c-.3.2-.7.4-1.2.4z"/><path d="m817.8 397.2c-.3 0-.6-.1-.9-.2l-10.6-4.6c-1.2-.5-1.7-1.9-1.2-3.1s1.9-1.7 3.1-1.2l9.9 4.3 20.3-4.5c.3-.1.5-.1.8 0l18.7 2.3c1.3.2 2.2 1.3 2 2.6s-1.3 2.2-2.6 2l-18.3-2.3-20.6 4.5c-.2.2-.4.2-.6.2z"/><path d="m684.8 446.7c-.6 0-1.3-.3-1.8-.8-.9-1-.8-2.5.2-3.3 28-24.9 70.6-25.2 99-.7 1 .8 1.1 2.3.2 3.3s-2.3 1.1-3.3.2c-26.6-23-66.5-22.7-92.8.7-.3.4-.9.6-1.5.6z"/><path d="m1630.1 208.7c0 2.9-2.3 5.2-5.2 5.2s-5.2-2.3-5.2-5.2 2.3-5.2 5.2-5.2c2.8 0 5.2 2.3 5.2 5.2z" fill="#fff"/><circle cx="1642.2" cy="228.6" fill="#fff" r="14.7"/><path d="m1434.6 152.9c-1.3 0-2.4-1.1-2.4-2.4v-6c0-1.3 1.1-2.4 2.4-2.4s2.4 1.1 2.4 2.4v6c0 1.4-1.1 2.4-2.4 2.4zm-162-5.8c-1.3 0-2.3-1-2.4-2.3 0 0-.1-2.4-.2-6 0-1.3 1-2.4 2.3-2.4s2.4 1 2.4 2.3c.1 3.6.2 6 .2 6 .1 1.2-.9 2.3-2.3 2.4zm162-15.2c-1.3 0-2.4-1.1-2.4-2.4v-6c0-1.3 1.1-2.4 2.4-2.4s2.4 1.1 2.4 2.4v6c0 1.4-1.1 2.4-2.4 2.4zm-162.6-5.8c-1.3 0-2.3-1-2.4-2.3 0-2-.1-4-.1-6 0-1.3 1-2.4 2.3-2.4s2.4 1 2.4 2.3c0 2 .1 4 .1 6 .1 1.2-1 2.3-2.3 2.4 0-.1 0 0 0 0zm162.6-15.2c-1.3 0-2.4-1.1-2.4-2.4v-6c0-1.3 1.1-2.4 2.4-2.4s2.4 1.1 2.4 2.4v6c0 1.4-1.1 2.4-2.4 2.4zm-162.6-5.9h-.1c-1.3-.1-2.3-1.2-2.2-2.5.1-2.6.3-5.5 2.9-5.5h2.6c1.3 0 2.4 1.1 2.4 2.4s-1.1 2.4-2.4 2.4h-.8c0 .3 0 .6-.1 1 0 1.3-1.1 2.2-2.3 2.2zm150.7-3.2h-6c-1.3 0-2.4-1.1-2.4-2.4s1.1-2.4 2.4-2.4h6c1.3 0 2.4 1.1 2.4 2.4s-1.1 2.4-2.4 2.4zm-21.1 0h-6c-1.3 0-2.4-1.1-2.4-2.4s1.1-2.4 2.4-2.4h6c1.3 0 2.4 1.1 2.4 2.4s-1.1 2.4-2.4 2.4zm-21.1 0h-6c-1.3 0-2.4-1.1-2.4-2.4s1.1-2.4 2.4-2.4h6c1.3 0 2.4 1.1 2.4 2.4s-1.1 2.4-2.4 2.4zm-21 0h-6c-1.3 0-2.4-1.1-2.4-2.4s1.1-2.4 2.4-2.4h6c1.3 0 2.4 1.1 2.4 2.4s-1.1 2.4-2.4 2.4zm-21.1 0h-6c-1.3 0-2.4-1.1-2.4-2.4s1.1-2.4 2.4-2.4h6c1.3 0 2.4 1.1 2.4 2.4s-1.1 2.4-2.4 2.4zm-21 0h-6c-1.3 0-2.4-1.1-2.4-2.4s1.1-2.4 2.4-2.4h6c1.3 0 2.4 1.1 2.4 2.4s-1.1 2.4-2.4 2.4zm-21.1 0h-6c-1.3 0-2.4-1.1-2.4-2.4s1.1-2.4 2.4-2.4h6c1.3 0 2.4 1.1 2.4 2.4s-1.1 2.4-2.4 2.4z"/><path d="m878.9 114c-1.5-3-2.5-6.3-3.6-9.5-.5-1.4-.6-3-1.5-4.2-1.4-1.6-3.5-1.9-5.4-1.1-1.8.7-2.1 2.7-2.5 4.3-.8 2.9-1.6 5.9-2.9 8.7-1 2.2-2.3 4.2-3.8 6.2-1 1.4-2.1 2.7-3.5 3.7-1.5 1.1-3.4 1.5-5.2 1.8-6.3 1.2-12.5.8-18.7-.7-5.2-1.2-8.2-4.7-9.4-9.8-.9-3.6-1.6-7.2-2.3-10.9-.5-2.1-.8-4.2-2.5-5.8-.2-.2-.3-.6-.3-.9.1-1.4-.1-2.9.4-4.1.6-1.6 2.4-1.1 3.6-1.4 9.6-1.8 19.3-2.2 29-.8 3.2.5 6.5 1.2 9.6 2.3 6.9 2.3 13.8 2.4 20.7.2 9-3 18.3-3.8 27.7-2.9 4.5.4 9 1.1 13.5 1.8 1.7.2 1.9.6 2 2.4 0 .5 0 1.1.1 1.6.2 1.3-.2 2.2-1.2 3.2-.6.7-1 1.7-1.3 2.6-1 4.4-1.8 8.8-2.8 13.2-1.5 6.2-5.7 9.3-11.8 10.1-2.9.4-5.8 1.1-8.7 1-3.5-.1-7-.3-10.3-1.6-1.5-.6-3.1-1.5-4.2-2.7-2.1-2.1-3.5-4.3-4.7-6.7zm21-23.8c-2 .1-3.9.1-5.8.3-3.9.4-7.6 1.2-11.2 2.8-3.9 1.8-5.4 4.1-5.1 8.4.3 4.9 2.1 9.5 4.3 13.8 2.3 4.5 6.1 6.7 10.9 7.2 5.1.6 10.1.1 15-1.1 3.9-1 6.8-3.1 8.1-7 1.7-5.1 2.2-10.3 1.8-15.6-.1-1-.4-2-.7-3-1.1-2.8-3.5-4-6.2-4.8-3.7-.8-7.4-.9-11.1-1zm-58.2.1c-1.1 0-2.1 0-3.2.1-3.4.2-7.4.4-10.5 1.7-3.2 1.4-4.6 4.3-4.7 7.6-.3 5.2.5 10.3 2 15.3 1 3 3 5.1 6 6.1 6.5 2.2 13 2.5 19.7 1.1 2.5-.5 4.9-1.7 6.4-3.9 1.4-2.1 2.6-4.2 3.6-6.5 1.6-3.6 2.6-7.4 2.5-11.4 0-2.2-.7-4.1-2.5-5.5-1-.7-2-1.4-3.2-1.8-2.5-1.1-5.2-1.8-7.9-2.2-2.8-.4-5.5-.6-8.2-.6z" stroke="#000" stroke-miterlimit="10" stroke-width="3"/><circle cx="842.8" cy="106.5" r="3.5" stroke="#000" stroke-miterlimit="10" stroke-width="2.3718"/><circle cx="898.4" cy="106.5" r="3.5" stroke="#000" stroke-miterlimit="10" stroke-width="2.3718"/></svg>