<svg enable-background="new 0 0 240 35" viewBox="0 0 240 35" xmlns="http://www.w3.org/2000/svg"><path d="m5.7 5h-5.7v-4.6h16.2v4.6h-5.7v29.6h-4.8z"/><path d="m18.7.4h4.7l7.4 20.6h.1v-20.6h4.9v34.2h-4.6l-7.5-20.6h-.1v20.6h-4.9z"/><path d="m40.4 8.5c0-5.6 4.2-8.4 8.2-8.4s8.2 2.8 8.2 8.4v1.7h-4.9v-1.7c0-2.4-1.5-3.5-3.3-3.5s-3.3 1.1-3.3 3.5v18.1c0 2.4 1.5 3.5 3.3 3.5s3.3-1.1 3.3-3.5v-6.4h-3.9v-4.3h8.8v10.8c0 5.6-4.2 8.4-8.2 8.4s-8.2-2.8-8.2-8.4z"/><path d="m77.2 27c0 4.2-3.4 7.9-7.8 7.9-3.7 0-8.1-1.8-8.1-8.1v-18.8c0-4.5 3.2-7.9 8-7.9 4.5 0 7.9 3.4 7.9 8.2v1.9h-4.9v-1.6c0-1.9-1.2-3.6-3-3.6-2.4 0-3 1.7-3 4v17.5c0 2 .8 3.5 3 3.5 1.3 0 3.1-.8 3.1-3.5v-1.7h4.9v2.2z"/><path d="m90.7 8.5c0-5.6 4.2-8.4 8.2-8.4s8.2 2.8 8.2 8.4v1.7h-4.9v-1.7c0-2.4-1.5-3.5-3.3-3.5s-3.3 1.1-3.3 3.5v18.1c0 2.4 1.5 3.5 3.3 3.5s3.3-1.1 3.3-3.5v-6.4h-3.9v-4.3h8.8v10.8c0 5.6-4.2 8.4-8.2 8.4s-8.2-2.8-8.2-8.4z"/><path d="m112 .4h7.9c5.8 0 8.6 3.4 8.6 10 0 3.9-1.1 6.8-4.2 8.5l5.3 15.6h-5.2l-4.6-14.5h-2.9v14.6h-4.9zm4.9 15.3h2.8c3.4 0 3.9-1.9 3.9-5.3 0-3.5-.6-5.3-4.2-5.3h-2.5z"/><path d="m138.3.4h4.1l7.6 34.2h-4.9l-1.4-7.3h-6.7l-1.4 7.3h-4.9zm2.1 9.8-2.5 12.4h4.9z"/><path d="m152.9.4h7.3c2.7 0 4.7.6 6.3 2.4 1.7 1.8 2.2 3.9 2.2 8 0 3-.2 5-1.4 6.9-1.3 2.2-3.5 3.6-7.1 3.6h-2.5v13.3h-4.9v-34.2zm4.9 16.2h2.4c4 0 4-2.4 4-5.8 0-3.2 0-5.9-3.8-5.9h-2.5v11.7z"/><path d="m172.9.4h4.9v14.6h6.1v-14.6h4.9v34.2h-4.9v-15.2h-6.1v15.2h-4.9z"/><path d="m194 .4h4.9v34.2h-4.9z"/><path d="m219.7 27c0 4.2-3.4 7.9-7.8 7.9-3.7 0-8.1-1.8-8.1-8.1v-18.8c0-4.5 3.2-7.9 8-7.9 4.5 0 7.9 3.4 7.9 8.2v1.9h-4.9v-1.6c0-1.9-1.2-3.6-3-3.6-2.4 0-3 1.7-3 4v17.5c0 2 .8 3.5 3 3.5 1.3 0 3.1-.8 3.1-3.5v-1.7h4.9v2.2z"/><path d="m240 10.2h-4.9v-1.1c0-2.3-1-4.1-3.5-4.1-2.7 0-3.3 2.2-3.3 4.4 0 2.6.2 3.6 2.8 4.6l3.7 1.5c4.3 1.6 5.1 4.4 5.1 9.4 0 5.8-2.1 10-8.5 10-4.8 0-8.4-3.5-8.4-8.1v-1.8h4.9v1.5c0 1.8 1 3.5 3.5 3.5 3.3 0 3.6-2 3.6-5.1 0-3.6-.4-4.2-2.8-5.2l-3.5-1.4c-4.2-1.7-5.3-4.5-5.3-8.8 0-5.2 2.8-9.4 8.4-9.4 4.9 0 8.2 3.9 8.2 7.7z"/></svg>